<svg width="80" height="80" viewBox="0 0 80 80" fill="none" xmlns="http://www.w3.org/2000/svg">
<path d="M17.844 37.672H47.485C48.0905 37.672 48.5788 38.1603 48.5788 38.7658C48.5788 39.3713 48.0906 39.8596 47.485 39.8596H17.844C17.2386 39.8596 16.7502 39.3713 16.7502 38.7658C16.7502 38.1603 17.2385 37.672 17.844 37.672ZM79.91 73.285V77.9491C79.91 78.5546 79.4218 79.0429 78.8162 79.0429H50.0112C49.4058 79.0429 48.9174 78.5546 48.9174 77.9491V74.3788H11.8974L8.15524 79.5468C7.94821 79.832 7.62008 79.9999 7.26852 79.9999C6.91696 79.9999 6.58883 79.832 6.3818 79.5468L0.295897 71.1484C0.159177 70.9609 0.0888672 70.7382 0.0888672 70.5078V29.5818C0.0888672 28.324 1.40137 27.3357 3.07327 27.3357H6.90527V1.09368C6.90527 0.488208 7.39355 -0.00012207 7.99907 -0.00012207H49.5111C49.8001 -0.00012207 50.0775 0.113158 50.2845 0.320188L64.8585 14.8942C65.0616 15.0973 65.1788 15.3786 65.1788 15.6676V33.6016C66.7999 33.711 68.3272 34.0899 69.6358 34.7657C71.8155 35.8907 74.4131 38.3126 74.4131 43.4688V67.4848H77.0147C77.6202 67.4848 78.1085 67.9731 78.1085 68.5786V72.188H78.8116C79.4171 72.1919 79.9093 72.6802 79.9093 73.2857L79.91 73.285ZM75.9217 69.6756H52.9017V72.1912H75.9217V69.6756ZM68.6365 36.7146C65.156 34.9216 59.5037 35.7263 55.4885 38.5896L55.3596 38.6834L57.8479 41.3045C58.0472 41.5154 58.1565 41.7966 58.1487 42.0857C58.1409 42.3748 58.0198 42.6521 57.8089 42.8513L50.1448 50.1169L51.4964 52.4528L58.8597 50.4059C58.8948 50.3981 58.93 50.4059 58.9612 50.3981C59.0315 50.3864 59.1018 50.3786 59.18 50.3825C59.2542 50.3864 59.3206 50.3942 59.3948 50.4098C59.43 50.4176 59.4651 50.4137 59.5042 50.4255C61.6448 51.1442 63.2073 51.195 64.1409 50.5739C64.9495 50.0387 65.4221 48.8903 65.5511 47.1677C65.5941 46.5661 66.1214 46.113 66.723 46.156C67.3246 46.199 67.7777 46.7263 67.7347 47.3279C67.555 49.7615 66.7542 51.4685 65.3558 52.3982C64.555 52.9294 63.5941 53.199 62.4613 53.199C61.8715 53.199 61.2308 53.1209 60.5433 52.9763C60.6839 54.4919 60.4183 55.7654 59.7386 56.7693C58.9691 57.906 57.6995 58.6638 55.9574 59.0349V67.4958H72.2384L72.2306 43.4728C72.2306 40.2189 71.0194 37.9412 68.6365 36.7146ZM50.6055 14.5736H61.4455L50.6055 3.73361V14.5736ZM2.27754 29.7216V33.1122H12.258V29.7216C12.1448 29.6435 11.8674 29.5224 11.4612 29.5224H3.07447C2.66822 29.5224 2.39473 29.6435 2.27754 29.7216ZM5.91424 69.4126V35.2996H2.27754V69.4126H5.91424ZM8.10174 69.4126H12.2579V35.2996H8.10174V69.4126ZM11.2111 71.6001H3.33224L7.27364 77.0376L11.2111 71.6001ZM13.4845 72.1899H49.8395C49.8708 72.1899 49.8942 72.2056 49.9255 72.2056C49.9567 72.2017 49.9802 72.1899 50.0114 72.1899H50.7145V68.5806C50.7145 67.9751 51.2028 67.4867 51.8083 67.4867H53.7575V58.0961C53.7575 57.5415 54.1716 57.0766 54.7185 57.0102C56.3044 56.8188 57.3787 56.3188 57.9138 55.5297C58.3474 54.8891 58.4841 53.9789 58.3161 52.8227L51.2614 54.7836C50.7809 54.9165 50.2692 54.7094 50.0192 54.2758L47.8122 50.4594C47.5583 50.0219 47.6403 49.4672 48.0075 49.1196L55.5036 42.0141L52.9098 39.2836C52.6911 39.0532 52.5856 38.7446 52.6129 38.4282C52.6403 38.1157 52.8044 37.8266 53.0622 37.643C53.2848 37.4828 53.5075 37.3227 53.7301 37.1586L54.2067 36.811C56.82 34.9477 59.9762 33.8579 62.9879 33.6235V16.7645H49.5109C48.9054 16.7645 48.4171 16.2762 48.4171 15.6707V2.18667H9.09309V27.3347H11.4564C13.1322 27.3347 14.4408 28.319 14.4408 29.5808V70.5068C14.4408 70.7372 14.3666 70.9599 14.2338 71.1474L13.4845 72.1899ZM77.7225 74.3774H51.1055V76.854H77.7185L77.7225 74.3774ZM17.1795 22.8694L15.9412 22.8499C15.41 22.8421 14.9647 22.4515 14.8787 21.928C14.6209 20.3186 14.6483 18.6936 14.9569 17.0999C15.0584 16.5804 15.5155 16.2015 16.0507 16.2132L17.2851 16.2328C17.539 15.4124 17.8788 14.6273 18.3046 13.8812L17.4413 12.9905C17.0702 12.6077 17.0272 12.0179 17.3397 11.5882C17.8085 10.9398 18.3436 10.3226 18.9295 9.75624C19.5076 9.19374 20.1404 8.68204 20.8084 8.22894C21.2498 7.92816 21.8396 7.99066 22.2107 8.37347L23.0701 9.26409C23.8279 8.86565 24.6248 8.54925 25.4529 8.32268L25.4724 7.08438C25.4802 6.55313 25.8709 6.10391 26.3943 6.02188C27.9998 5.76797 29.6248 5.79532 31.2263 6.10391C31.7458 6.20547 32.1208 6.66641 32.113 7.19771L32.0935 8.43601C32.9138 8.68992 33.699 9.02976 34.4451 9.45551L35.3357 8.59223C35.7185 8.22504 36.3084 8.18207 36.738 8.49067C37.3865 8.95942 37.9997 9.49457 38.5661 10.0766C39.1169 10.6391 39.6325 11.2719 40.0934 11.9555C40.3903 12.3969 40.3317 12.9867 39.9489 13.3539L39.0583 14.2171C39.4567 14.975 39.7731 15.7718 39.9997 16.5999L41.238 16.6195C41.7692 16.6273 42.2145 17.0179 42.3005 17.5414C42.5583 19.1508 42.531 20.7758 42.2224 22.3695C42.1208 22.889 41.6638 23.264 41.1326 23.2562L39.8943 23.2366C39.6403 24.057 39.3005 24.8421 38.8748 25.5882L39.738 26.475C40.1091 26.8578 40.1521 27.4476 39.8396 27.8773C39.3708 28.5257 38.8357 29.1429 38.2458 29.7093C37.6638 30.2718 37.0349 30.7835 36.3669 31.2366C35.9255 31.5373 35.3357 31.4748 34.9646 31.092L34.1052 30.2014C33.3435 30.5999 32.5466 30.9163 31.7224 31.1428L31.7029 32.3772C31.6951 32.9085 31.3044 33.3577 30.781 33.4397C30.0544 33.553 29.324 33.6116 28.5935 33.6116C27.7146 33.6116 26.8318 33.5296 25.9568 33.3616C25.4334 33.264 25.0584 32.7991 25.0662 32.2678L25.0857 31.0256C24.2654 30.7717 23.4763 30.4319 22.738 30.01L21.8435 30.8733C21.4607 31.2444 20.8669 31.2834 20.4373 30.9709C19.7849 30.4944 19.1717 29.9592 18.6131 29.3811C18.0506 28.803 17.5389 28.1702 17.0858 27.5022C16.7889 27.0647 16.8475 26.471 17.2303 26.1038L18.1209 25.2406C17.7225 24.4984 17.4061 23.7014 17.1795 22.8694ZM16.9334 20.678L18.0701 20.6976C18.5858 20.7054 19.0272 21.0765 19.1248 21.5843C19.3553 22.764 19.7889 23.8655 20.4178 24.8616C20.6952 25.2991 20.6288 25.8694 20.2538 26.2327L19.4374 27.0257C19.6718 27.3225 19.9218 27.6038 20.1835 27.8772C20.4452 28.1468 20.7186 28.4046 21.0077 28.6507L21.8241 27.8616C22.1952 27.5022 22.7694 27.4515 23.1991 27.7405C24.1757 28.4007 25.2655 28.8733 26.4335 29.1389C26.9374 29.2522 27.2929 29.7053 27.2851 30.2248L27.2655 31.3615C28.0194 31.4475 28.7772 31.4592 29.5272 31.3967L29.5429 30.26C29.5507 29.7404 29.9218 29.299 30.4296 29.2014C31.5976 28.9748 32.703 28.5373 33.7148 27.9045C34.1523 27.631 34.7226 27.7014 35.082 28.0685L35.871 28.8849C36.1679 28.6506 36.4492 28.4006 36.7226 28.1389C36.996 27.8732 37.2538 27.5998 37.4999 27.3146L36.7109 26.4982C36.3515 26.1271 36.3007 25.5529 36.5898 25.1232C37.2578 24.1388 37.7265 23.0529 37.9921 21.8888C38.1054 21.3849 38.5585 21.0294 39.0741 21.0373L40.2108 21.0529C40.2967 20.3029 40.3084 19.5451 40.2459 18.7912L39.1092 18.7717C38.5936 18.7638 38.1522 18.3928 38.0545 17.8849C37.828 16.7091 37.3905 15.6076 36.7576 14.6037C36.4803 14.1662 36.5506 13.5959 36.9217 13.2365L37.7381 12.4436C37.4998 12.1428 37.2498 11.8615 36.992 11.5959C36.7264 11.3225 36.453 11.0647 36.1678 10.8186L35.3475 11.6115C34.9764 11.9709 34.4022 12.0217 33.9725 11.7326C32.9881 11.0686 31.9022 10.5959 30.7381 10.3303C30.2342 10.217 29.8787 9.76392 29.8865 9.24443L29.9061 8.10773C29.1521 8.02179 28.3983 8.01008 27.6444 8.06867L27.6287 9.20927C27.6209 9.7288 27.2498 10.1702 26.742 10.2679C25.5662 10.4944 24.4608 10.9319 23.4608 11.5648C23.0233 11.8421 22.4491 11.7718 22.0897 11.4007L21.3007 10.5843C21.0077 10.8187 20.7225 11.0687 20.453 11.3304C20.1796 11.596 19.9217 11.8694 19.6757 12.1546L20.4647 12.971C20.8241 13.3421 20.8749 13.9163 20.5858 14.346C19.9178 15.3382 19.4452 16.428 19.1835 17.5843C19.0702 18.0882 18.6171 18.4515 18.0976 18.4359L16.9609 18.4163C16.8828 19.1663 16.8709 19.9241 16.9334 20.678ZM23.2107 24.9436C20.3435 21.9827 20.4177 17.2327 23.3826 14.3576C24.8201 12.967 26.7107 12.217 28.7146 12.2482C30.7146 12.2795 32.5818 13.092 33.9763 14.5255C36.8435 17.4943 36.7693 22.2443 33.8044 25.1115C32.3982 26.4748 30.5505 27.2209 28.5974 27.2209H28.4724C26.4685 27.1897 24.6013 26.3811 23.2107 24.9436ZM24.781 23.4202C26.8162 25.5218 30.1794 25.5764 32.2771 23.5413C34.3748 21.5101 34.4294 18.1468 32.3982 16.0491C31.4139 15.0335 30.0896 14.4593 28.6755 14.4358C27.2614 14.4163 25.9216 14.9436 24.9021 15.928C22.8044 17.9632 22.7498 21.3225 24.781 23.4202ZM45.605 42.9472H17.843C17.2376 42.9472 16.7492 43.4355 16.7492 44.041C16.7492 44.6466 17.2375 45.1348 17.843 45.1348H45.605C46.2105 45.1348 46.6988 44.6466 46.6988 44.041C46.6988 43.4395 46.2106 42.9472 45.605 42.9472ZM45.605 48.2245H17.843C17.2376 48.2245 16.7492 48.7128 16.7492 49.3183C16.7492 49.9238 17.2375 50.4121 17.843 50.4121H45.605C46.2105 50.4121 46.6988 49.9239 46.6988 49.3183C46.6988 48.7129 46.2106 48.2245 45.605 48.2245ZM45.605 53.5018H17.843C17.2376 53.5018 16.7492 53.9901 16.7492 54.5956C16.7492 55.2011 17.2375 55.6894 17.843 55.6894H45.605C46.2105 55.6894 46.6988 55.2012 46.6988 54.5956C46.6988 53.9902 46.2106 53.5018 45.605 53.5018ZM48.4175 58.7791H17.8435C17.2381 58.7791 16.7497 59.2674 16.7497 59.8729C16.7497 60.4785 17.238 60.9668 17.8435 60.9668H48.4175C49.023 60.9668 49.5113 60.4785 49.5113 59.8729C49.5113 59.2674 49.0231 58.7791 48.4175 58.7791ZM48.4175 64.0564H17.8435C17.2381 64.0564 16.7497 64.5447 16.7497 65.1502C16.7497 65.7557 17.238 66.244 17.8435 66.244H48.4175C49.023 66.244 49.5113 65.7558 49.5113 65.1502C49.5113 64.5487 49.0231 64.0564 48.4175 64.0564Z" fill="black"/>
</svg>
