<svg width="80" height="82" viewBox="0 0 80 82" fill="none" xmlns="http://www.w3.org/2000/svg">
<mask id="path-1-outside-1_650_17" maskUnits="userSpaceOnUse" x="0.0195312" y="-0.313843" width="80" height="83" fill="black">
<rect fill="white" x="0.0195312" y="-0.313843" width="80" height="83"/>
<path d="M73.438 81.312H36.407C33.3523 81.308 30.8758 78.8276 30.8758 75.769V59.101V59.1049C30.8758 58.8158 31.1101 58.5814 31.3953 58.5814C31.6805 58.5892 31.9109 58.8197 31.9187 59.1049V75.7729V75.769C31.9187 78.2534 33.9265 80.2651 36.407 80.269H73.438C75.9224 80.265 77.9341 78.2534 77.938 75.769V51.519C77.9341 49.0385 75.9185 47.0307 73.438 47.0307H51.895C51.6099 47.0307 51.3755 46.7963 51.3755 46.5111C51.3755 46.2221 51.6099 45.9877 51.895 45.9877H73.438C76.4927 45.9877 78.9732 48.4643 78.981 51.5189V75.7689C78.9732 78.8275 76.4966 81.3081 73.438 81.312ZM23.887 73.062H1.54297C1.25391 73.062 1.01953 72.8276 1.01953 72.5424C1.02734 72.2573 1.25781 72.0268 1.54297 72.019H23.887C24.1721 72.0268 24.4026 72.2573 24.4065 72.5424C24.4065 72.6791 24.3518 72.812 24.2542 72.9096C24.1565 73.0073 24.0237 73.062 23.887 73.062ZM50.969 72.5502C50.5159 72.5541 50.0705 72.4526 49.6682 72.2495C48.6994 71.7729 48.0823 70.7886 48.0823 69.7065V58.2495C48.0901 57.1714 48.7073 56.187 49.6721 55.7104C50.6408 55.2299 51.7932 55.3393 52.6565 55.9877L60.1253 61.6947V61.6986C60.8245 62.2338 61.2386 63.0697 61.2386 63.9525C61.2386 64.8353 60.8245 65.6713 60.1253 66.2064L52.6565 71.9056C52.1682 72.3119 51.5588 72.5384 50.926 72.5501L50.969 72.5502ZM50.969 56.4992C50.6916 56.4992 50.4182 56.5656 50.1682 56.6867C49.5315 56.9719 49.1252 57.6047 49.1252 58.3V69.761C49.133 70.4407 49.5236 71.0579 50.1369 71.3587C50.7463 71.6595 51.4767 71.5931 52.0197 71.1869L59.4885 65.4877C59.9377 65.1478 60.1994 64.6166 60.1994 64.058C60.1994 63.4955 59.9377 62.9642 59.4885 62.6244L52.0197 56.9252C51.7189 56.6634 51.3361 56.515 50.9377 56.4994L50.969 56.4992ZM23.887 66.8542H1.54297C1.25391 66.8542 1.01953 66.6199 1.01953 66.3308C1.01953 66.0456 1.25391 65.8113 1.54297 65.8113H23.887C24.1721 65.8113 24.4065 66.0456 24.4065 66.3308C24.4065 66.6199 24.1721 66.8542 23.887 66.8542ZM14.512 60.6042H1.54297C1.25781 60.5964 1.02735 60.366 1.01953 60.0808C1.01953 59.7956 1.25391 59.5613 1.54297 59.5613H14.563C14.6997 59.5613 14.8325 59.616 14.9302 59.7136C15.0278 59.8113 15.0825 59.9441 15.0825 60.0808C15.0942 60.2292 15.0473 60.3699 14.9458 60.4792C14.8481 60.5847 14.7075 60.6433 14.563 60.6433L14.512 60.6042ZM43.68 52.1237H6.40697C3.43427 52.1198 1.02807 49.7096 1.02027 46.737V22.249C1.02808 19.2802 3.43827 16.874 6.40697 16.874H43.751C46.7198 16.874 49.126 19.2802 49.126 22.249V46.8C49.1142 49.7648 46.7119 52.1594 43.751 52.1672L43.68 52.1237ZM2.01197 41.7797V46.7367C2.01197 49.1351 3.95727 51.0805 6.35577 51.0805H43.7508C46.1453 51.0766 48.0828 49.1313 48.0828 46.7367V40.1547L34.6378 26.6977C33.8643 25.9673 32.6573 25.9673 31.8878 26.6977L18.3448 40.2407V40.2368C17.1495 41.3384 15.3096 41.3384 14.1143 40.2368L10.2588 36.3813L10.2627 36.3852C9.48924 35.643 8.27048 35.643 7.50098 36.3852L2.01197 41.7797ZM6.35577 17.8227C5.19557 17.8345 4.09407 18.311 3.28547 19.143C2.48078 19.9712 2.03937 21.0922 2.06277 22.2485V40.3535L6.75027 35.666C7.31277 35.1035 8.07057 34.7871 8.86357 34.7871C9.65657 34.7871 10.4183 35.1035 10.9808 35.666L14.8363 39.5215L14.8324 39.5176C15.6019 40.2598 16.8168 40.2598 17.5824 39.5176L31.1254 25.9746V25.9785C31.6879 25.416 32.4457 25.0996 33.2387 25.0996C34.0317 25.0996 34.7934 25.416 35.3559 25.9785L48.0629 38.6855V22.2475C48.059 19.8569 46.1215 17.9194 43.7309 17.9155L6.35577 17.8227ZM75.8558 42.8227H56.0318C54.3521 42.7876 52.9966 41.4282 52.9693 39.7485V19.9245C52.9966 18.2448 54.3521 16.8854 56.0318 16.8542H75.9068C77.6138 16.8542 79.0045 18.2214 79.0318 19.9245V39.7915C79.0044 41.4946 77.6138 42.8618 75.9068 42.8618L75.8558 42.8227ZM55.9808 17.8227C55.4417 17.8227 54.9261 18.0376 54.5472 18.4165C54.1683 18.7993 53.9573 19.3149 53.9573 19.854V39.792C53.9573 40.3271 54.1683 40.8467 54.5472 41.2256C54.9261 41.6084 55.4417 41.8232 55.9808 41.8232H75.9068C77.0357 41.8232 77.9615 40.9209 77.9888 39.792V19.925C77.9614 18.7961 77.0356 17.8938 75.9068 17.8938L55.9808 17.8227ZM70.2078 34.8107H61.7508C61.4617 34.8107 61.2312 34.5764 61.2312 34.2912C61.2312 34.0021 61.4617 33.7678 61.7508 33.7678H70.2078C70.3484 33.7678 70.4812 33.8225 70.5789 33.9201C70.6765 34.0178 70.7312 34.1506 70.7312 34.2912C70.7312 34.4279 70.6765 34.5607 70.5789 34.6584C70.4812 34.756 70.3484 34.8107 70.2078 34.8107ZM70.2078 31.8537H61.7508C61.4617 31.8537 61.2312 31.6194 61.2312 31.3303C61.2312 31.0451 61.4617 30.8108 61.7508 30.8108H70.2078C70.3484 30.8108 70.4812 30.8655 70.5789 30.9631C70.6765 31.0608 70.7312 31.1936 70.7312 31.3303C70.7312 31.4709 70.6765 31.6037 70.5789 31.7014C70.4812 31.799 70.3484 31.8537 70.2078 31.8537ZM16.9578 31.6233C15.2976 31.6233 13.8016 30.6233 13.1687 29.0881C12.532 27.5569 12.8835 25.7912 14.0554 24.6154C15.2312 23.4435 16.9968 23.092 18.5281 23.7286C20.0633 24.3615 21.0633 25.8575 21.0633 27.5177C21.0672 28.6075 20.6336 29.6544 19.8641 30.4239C19.0946 31.1934 18.0476 31.6272 16.9578 31.6233ZM16.9578 24.4553C15.7195 24.4553 14.6023 25.2014 14.1297 26.3459C13.657 27.4904 13.9187 28.8068 14.7937 29.6857C15.6687 30.5607 16.9851 30.8224 18.1296 30.3497C19.2741 29.8732 20.0202 28.7559 20.0202 27.5177C20.0241 26.7052 19.7038 25.9239 19.1296 25.3458C18.5554 24.7716 17.7741 24.4474 16.9577 24.4474L16.9578 24.4553ZM70.2078 28.9045H61.7508C61.4617 28.9045 61.2312 28.6701 61.2312 28.3849C61.2312 28.0959 61.4617 27.8615 61.7508 27.8615H70.2078C70.3484 27.8615 70.4812 27.9162 70.5789 28.0138C70.6765 28.1115 70.7312 28.2443 70.7312 28.3849C70.7312 28.5216 70.6765 28.6545 70.5789 28.7521C70.4812 28.8498 70.3484 28.9045 70.2078 28.9045ZM70.2078 25.9475H61.7508C61.4617 25.9475 61.2312 25.7131 61.2312 25.424C61.2312 25.1389 61.4617 24.9045 61.7508 24.9045H70.2078C70.3484 24.9045 70.4812 24.9592 70.5789 25.0568C70.6765 25.1545 70.7312 25.2873 70.7312 25.424C70.7312 25.5646 70.6765 25.6975 70.5789 25.7951C70.4812 25.8928 70.3484 25.9475 70.2078 25.9475ZM76.1766 12.7175H3.83257C3.09038 12.7214 2.37167 12.4245 1.84427 11.9011C1.31693 11.3737 1.02005 10.6589 1.02005 9.91666V3.49866C1.02005 1.94396 2.28175 0.686157 3.83255 0.686157H76.1685C76.9146 0.686157 77.6295 0.983037 78.1569 1.51038C78.6842 2.03772 78.9811 2.75258 78.9811 3.49868V9.91668C78.9811 10.6589 78.6842 11.3737 78.1569 11.9011C77.6295 12.4245 76.9107 12.7214 76.1685 12.7175L76.1766 12.7175ZM3.83257 1.72947C2.85601 1.72947 2.06307 2.52244 2.06307 3.49897V9.91697C2.06698 10.8896 2.85995 11.6748 3.83257 11.6748H76.1686C77.1412 11.6748 77.9342 10.8896 77.9381 9.91697V3.49897C77.9381 2.52241 77.1451 1.72947 76.1686 1.72947H3.83257ZM71.0086 9.02247L71.0125 9.01856C70.0515 9.03418 69.1805 8.46387 68.8094 7.57716C68.4383 6.69435 68.6414 5.67486 69.3211 4.99906C70.0008 4.31937 71.0203 4.12406 71.9031 4.49906C72.7859 4.87406 73.3523 5.74906 73.3328 6.70606C73.3328 7.99516 72.2976 9.04586 71.0125 9.06156L71.0086 9.02247ZM71.0086 5.35447H71.0125C70.4812 5.34275 69.9969 5.64744 69.782 6.13181C69.5671 6.61619 69.6648 7.18261 70.0281 7.56931C70.3913 7.95212 70.9499 8.08103 71.4461 7.89353C71.9422 7.70603 72.2742 7.23728 72.2937 6.70603C72.2976 5.99119 71.7273 5.40523 71.0125 5.39353L71.0086 5.35447ZM62.9774 9.02247L62.9813 9.01856C62.0282 9.01856 61.1688 8.44434 60.8055 7.56546C60.4422 6.68655 60.6414 5.67486 61.3172 5.00296C61.9891 4.32718 63.0008 4.12796 63.8797 4.49124C64.7586 4.85452 65.3328 5.71394 65.3328 6.66704C65.3445 7.29595 65.1023 7.90534 64.6609 8.35844C64.2156 8.80766 63.6101 9.06156 62.9812 9.06156L62.9774 9.02247ZM62.9774 5.35447H62.9813C62.45 5.35447 61.9696 5.67478 61.7665 6.16306C61.5634 6.65525 61.6766 7.21776 62.0516 7.59276C62.4266 7.96776 62.993 8.08104 63.4813 7.87792C63.9735 7.6748 64.2938 7.19823 64.2938 6.66702C64.2743 5.95608 63.6923 5.38972 62.9813 5.39362L62.9774 5.35447ZM54.9462 9.02247L54.9501 9.01856C53.997 9.01856 53.1376 8.44434 52.7743 7.56546C52.411 6.68655 52.6102 5.67486 53.286 5.00296C53.9579 4.32718 54.9696 4.12796 55.8485 4.49124C56.7274 4.85452 57.3016 5.71394 57.3016 6.66704C57.3133 7.29595 57.0711 7.90534 56.6297 8.35844C56.1844 8.80766 55.5789 9.06156 54.95 9.06156L54.9462 9.02247ZM54.9462 5.35447H54.9501C54.4188 5.35447 53.9384 5.67478 53.7353 6.16306C53.5322 6.65525 53.6454 7.21776 54.0204 7.59276C54.3954 7.96776 54.9618 8.08104 55.4501 7.87792C55.9423 7.6748 56.2626 7.19823 56.2626 6.66702C56.2431 5.95608 55.6611 5.38972 54.9501 5.39362L54.9462 5.35447ZM31.1692 9.06147H7.15717C6.86811 9.06147 6.63764 8.82709 6.63764 8.54194V4.87394C6.63764 4.58488 6.86811 4.35441 7.15717 4.35441H31.1692C31.3059 4.35441 31.4387 4.40909 31.5364 4.50675C31.634 4.6044 31.6887 4.73722 31.6887 4.87394V8.54194C31.6887 8.67866 31.634 8.81147 31.5364 8.90913C31.4387 9.00679 31.3059 9.06147 31.1692 9.06147ZM7.70817 8.01847H30.6262V5.39347H7.70817V8.01847Z"/>
</mask>
<path d="M73.438 81.312H36.407C33.3523 81.308 30.8758 78.8276 30.8758 75.769V59.101V59.1049C30.8758 58.8158 31.1101 58.5814 31.3953 58.5814C31.6805 58.5892 31.9109 58.8197 31.9187 59.1049V75.7729V75.769C31.9187 78.2534 33.9265 80.2651 36.407 80.269H73.438C75.9224 80.265 77.9341 78.2534 77.938 75.769V51.519C77.9341 49.0385 75.9185 47.0307 73.438 47.0307H51.895C51.6099 47.0307 51.3755 46.7963 51.3755 46.5111C51.3755 46.2221 51.6099 45.9877 51.895 45.9877H73.438C76.4927 45.9877 78.9732 48.4643 78.981 51.5189V75.7689C78.9732 78.8275 76.4966 81.3081 73.438 81.312ZM23.887 73.062H1.54297C1.25391 73.062 1.01953 72.8276 1.01953 72.5424C1.02734 72.2573 1.25781 72.0268 1.54297 72.019H23.887C24.1721 72.0268 24.4026 72.2573 24.4065 72.5424C24.4065 72.6791 24.3518 72.812 24.2542 72.9096C24.1565 73.0073 24.0237 73.062 23.887 73.062ZM50.969 72.5502C50.5159 72.5541 50.0705 72.4526 49.6682 72.2495C48.6994 71.7729 48.0823 70.7886 48.0823 69.7065V58.2495C48.0901 57.1714 48.7073 56.187 49.6721 55.7104C50.6408 55.2299 51.7932 55.3393 52.6565 55.9877L60.1253 61.6947V61.6986C60.8245 62.2338 61.2386 63.0697 61.2386 63.9525C61.2386 64.8353 60.8245 65.6713 60.1253 66.2064L52.6565 71.9056C52.1682 72.3119 51.5588 72.5384 50.926 72.5501L50.969 72.5502ZM50.969 56.4992C50.6916 56.4992 50.4182 56.5656 50.1682 56.6867C49.5315 56.9719 49.1252 57.6047 49.1252 58.3V69.761C49.133 70.4407 49.5236 71.0579 50.1369 71.3587C50.7463 71.6595 51.4767 71.5931 52.0197 71.1869L59.4885 65.4877C59.9377 65.1478 60.1994 64.6166 60.1994 64.058C60.1994 63.4955 59.9377 62.9642 59.4885 62.6244L52.0197 56.9252C51.7189 56.6634 51.3361 56.515 50.9377 56.4994L50.969 56.4992ZM23.887 66.8542H1.54297C1.25391 66.8542 1.01953 66.6199 1.01953 66.3308C1.01953 66.0456 1.25391 65.8113 1.54297 65.8113H23.887C24.1721 65.8113 24.4065 66.0456 24.4065 66.3308C24.4065 66.6199 24.1721 66.8542 23.887 66.8542ZM14.512 60.6042H1.54297C1.25781 60.5964 1.02735 60.366 1.01953 60.0808C1.01953 59.7956 1.25391 59.5613 1.54297 59.5613H14.563C14.6997 59.5613 14.8325 59.616 14.9302 59.7136C15.0278 59.8113 15.0825 59.9441 15.0825 60.0808C15.0942 60.2292 15.0473 60.3699 14.9458 60.4792C14.8481 60.5847 14.7075 60.6433 14.563 60.6433L14.512 60.6042ZM43.68 52.1237H6.40697C3.43427 52.1198 1.02807 49.7096 1.02027 46.737V22.249C1.02808 19.2802 3.43827 16.874 6.40697 16.874H43.751C46.7198 16.874 49.126 19.2802 49.126 22.249V46.8C49.1142 49.7648 46.7119 52.1594 43.751 52.1672L43.68 52.1237ZM2.01197 41.7797V46.7367C2.01197 49.1351 3.95727 51.0805 6.35577 51.0805H43.7508C46.1453 51.0766 48.0828 49.1313 48.0828 46.7367V40.1547L34.6378 26.6977C33.8643 25.9673 32.6573 25.9673 31.8878 26.6977L18.3448 40.2407V40.2368C17.1495 41.3384 15.3096 41.3384 14.1143 40.2368L10.2588 36.3813L10.2627 36.3852C9.48924 35.643 8.27048 35.643 7.50098 36.3852L2.01197 41.7797ZM6.35577 17.8227C5.19557 17.8345 4.09407 18.311 3.28547 19.143C2.48078 19.9712 2.03937 21.0922 2.06277 22.2485V40.3535L6.75027 35.666C7.31277 35.1035 8.07057 34.7871 8.86357 34.7871C9.65657 34.7871 10.4183 35.1035 10.9808 35.666L14.8363 39.5215L14.8324 39.5176C15.6019 40.2598 16.8168 40.2598 17.5824 39.5176L31.1254 25.9746V25.9785C31.6879 25.416 32.4457 25.0996 33.2387 25.0996C34.0317 25.0996 34.7934 25.416 35.3559 25.9785L48.0629 38.6855V22.2475C48.059 19.8569 46.1215 17.9194 43.7309 17.9155L6.35577 17.8227ZM75.8558 42.8227H56.0318C54.3521 42.7876 52.9966 41.4282 52.9693 39.7485V19.9245C52.9966 18.2448 54.3521 16.8854 56.0318 16.8542H75.9068C77.6138 16.8542 79.0045 18.2214 79.0318 19.9245V39.7915C79.0044 41.4946 77.6138 42.8618 75.9068 42.8618L75.8558 42.8227ZM55.9808 17.8227C55.4417 17.8227 54.9261 18.0376 54.5472 18.4165C54.1683 18.7993 53.9573 19.3149 53.9573 19.854V39.792C53.9573 40.3271 54.1683 40.8467 54.5472 41.2256C54.9261 41.6084 55.4417 41.8232 55.9808 41.8232H75.9068C77.0357 41.8232 77.9615 40.9209 77.9888 39.792V19.925C77.9614 18.7961 77.0356 17.8938 75.9068 17.8938L55.9808 17.8227ZM70.2078 34.8107H61.7508C61.4617 34.8107 61.2312 34.5764 61.2312 34.2912C61.2312 34.0021 61.4617 33.7678 61.7508 33.7678H70.2078C70.3484 33.7678 70.4812 33.8225 70.5789 33.9201C70.6765 34.0178 70.7312 34.1506 70.7312 34.2912C70.7312 34.4279 70.6765 34.5607 70.5789 34.6584C70.4812 34.756 70.3484 34.8107 70.2078 34.8107ZM70.2078 31.8537H61.7508C61.4617 31.8537 61.2312 31.6194 61.2312 31.3303C61.2312 31.0451 61.4617 30.8108 61.7508 30.8108H70.2078C70.3484 30.8108 70.4812 30.8655 70.5789 30.9631C70.6765 31.0608 70.7312 31.1936 70.7312 31.3303C70.7312 31.4709 70.6765 31.6037 70.5789 31.7014C70.4812 31.799 70.3484 31.8537 70.2078 31.8537ZM16.9578 31.6233C15.2976 31.6233 13.8016 30.6233 13.1687 29.0881C12.532 27.5569 12.8835 25.7912 14.0554 24.6154C15.2312 23.4435 16.9968 23.092 18.5281 23.7286C20.0633 24.3615 21.0633 25.8575 21.0633 27.5177C21.0672 28.6075 20.6336 29.6544 19.8641 30.4239C19.0946 31.1934 18.0476 31.6272 16.9578 31.6233ZM16.9578 24.4553C15.7195 24.4553 14.6023 25.2014 14.1297 26.3459C13.657 27.4904 13.9187 28.8068 14.7937 29.6857C15.6687 30.5607 16.9851 30.8224 18.1296 30.3497C19.2741 29.8732 20.0202 28.7559 20.0202 27.5177C20.0241 26.7052 19.7038 25.9239 19.1296 25.3458C18.5554 24.7716 17.7741 24.4474 16.9577 24.4474L16.9578 24.4553ZM70.2078 28.9045H61.7508C61.4617 28.9045 61.2312 28.6701 61.2312 28.3849C61.2312 28.0959 61.4617 27.8615 61.7508 27.8615H70.2078C70.3484 27.8615 70.4812 27.9162 70.5789 28.0138C70.6765 28.1115 70.7312 28.2443 70.7312 28.3849C70.7312 28.5216 70.6765 28.6545 70.5789 28.7521C70.4812 28.8498 70.3484 28.9045 70.2078 28.9045ZM70.2078 25.9475H61.7508C61.4617 25.9475 61.2312 25.7131 61.2312 25.424C61.2312 25.1389 61.4617 24.9045 61.7508 24.9045H70.2078C70.3484 24.9045 70.4812 24.9592 70.5789 25.0568C70.6765 25.1545 70.7312 25.2873 70.7312 25.424C70.7312 25.5646 70.6765 25.6975 70.5789 25.7951C70.4812 25.8928 70.3484 25.9475 70.2078 25.9475ZM76.1766 12.7175H3.83257C3.09038 12.7214 2.37167 12.4245 1.84427 11.9011C1.31693 11.3737 1.02005 10.6589 1.02005 9.91666V3.49866C1.02005 1.94396 2.28175 0.686157 3.83255 0.686157H76.1685C76.9146 0.686157 77.6295 0.983037 78.1569 1.51038C78.6842 2.03772 78.9811 2.75258 78.9811 3.49868V9.91668C78.9811 10.6589 78.6842 11.3737 78.1569 11.9011C77.6295 12.4245 76.9107 12.7214 76.1685 12.7175L76.1766 12.7175ZM3.83257 1.72947C2.85601 1.72947 2.06307 2.52244 2.06307 3.49897V9.91697C2.06698 10.8896 2.85995 11.6748 3.83257 11.6748H76.1686C77.1412 11.6748 77.9342 10.8896 77.9381 9.91697V3.49897C77.9381 2.52241 77.1451 1.72947 76.1686 1.72947H3.83257ZM71.0086 9.02247L71.0125 9.01856C70.0515 9.03418 69.1805 8.46387 68.8094 7.57716C68.4383 6.69435 68.6414 5.67486 69.3211 4.99906C70.0008 4.31937 71.0203 4.12406 71.9031 4.49906C72.7859 4.87406 73.3523 5.74906 73.3328 6.70606C73.3328 7.99516 72.2976 9.04586 71.0125 9.06156L71.0086 9.02247ZM71.0086 5.35447H71.0125C70.4812 5.34275 69.9969 5.64744 69.782 6.13181C69.5671 6.61619 69.6648 7.18261 70.0281 7.56931C70.3913 7.95212 70.9499 8.08103 71.4461 7.89353C71.9422 7.70603 72.2742 7.23728 72.2937 6.70603C72.2976 5.99119 71.7273 5.40523 71.0125 5.39353L71.0086 5.35447ZM62.9774 9.02247L62.9813 9.01856C62.0282 9.01856 61.1688 8.44434 60.8055 7.56546C60.4422 6.68655 60.6414 5.67486 61.3172 5.00296C61.9891 4.32718 63.0008 4.12796 63.8797 4.49124C64.7586 4.85452 65.3328 5.71394 65.3328 6.66704C65.3445 7.29595 65.1023 7.90534 64.6609 8.35844C64.2156 8.80766 63.6101 9.06156 62.9812 9.06156L62.9774 9.02247ZM62.9774 5.35447H62.9813C62.45 5.35447 61.9696 5.67478 61.7665 6.16306C61.5634 6.65525 61.6766 7.21776 62.0516 7.59276C62.4266 7.96776 62.993 8.08104 63.4813 7.87792C63.9735 7.6748 64.2938 7.19823 64.2938 6.66702C64.2743 5.95608 63.6923 5.38972 62.9813 5.39362L62.9774 5.35447ZM54.9462 9.02247L54.9501 9.01856C53.997 9.01856 53.1376 8.44434 52.7743 7.56546C52.411 6.68655 52.6102 5.67486 53.286 5.00296C53.9579 4.32718 54.9696 4.12796 55.8485 4.49124C56.7274 4.85452 57.3016 5.71394 57.3016 6.66704C57.3133 7.29595 57.0711 7.90534 56.6297 8.35844C56.1844 8.80766 55.5789 9.06156 54.95 9.06156L54.9462 9.02247ZM54.9462 5.35447H54.9501C54.4188 5.35447 53.9384 5.67478 53.7353 6.16306C53.5322 6.65525 53.6454 7.21776 54.0204 7.59276C54.3954 7.96776 54.9618 8.08104 55.4501 7.87792C55.9423 7.6748 56.2626 7.19823 56.2626 6.66702C56.2431 5.95608 55.6611 5.38972 54.9501 5.39362L54.9462 5.35447ZM31.1692 9.06147H7.15717C6.86811 9.06147 6.63764 8.82709 6.63764 8.54194V4.87394C6.63764 4.58488 6.86811 4.35441 7.15717 4.35441H31.1692C31.3059 4.35441 31.4387 4.40909 31.5364 4.50675C31.634 4.6044 31.6887 4.73722 31.6887 4.87394V8.54194C31.6887 8.67866 31.634 8.81147 31.5364 8.90913C31.4387 9.00679 31.3059 9.06147 31.1692 9.06147ZM7.70817 8.01847H30.6262V5.39347H7.70817V8.01847Z" fill="black"/>
<path d="M73.438 81.312H36.407C33.3523 81.308 30.8758 78.8276 30.8758 75.769V59.101V59.1049C30.8758 58.8158 31.1101 58.5814 31.3953 58.5814C31.6805 58.5892 31.9109 58.8197 31.9187 59.1049V75.7729V75.769C31.9187 78.2534 33.9265 80.2651 36.407 80.269H73.438C75.9224 80.265 77.9341 78.2534 77.938 75.769V51.519C77.9341 49.0385 75.9185 47.0307 73.438 47.0307H51.895C51.6099 47.0307 51.3755 46.7963 51.3755 46.5111C51.3755 46.2221 51.6099 45.9877 51.895 45.9877H73.438C76.4927 45.9877 78.9732 48.4643 78.981 51.5189V75.7689C78.9732 78.8275 76.4966 81.3081 73.438 81.312ZM23.887 73.062H1.54297C1.25391 73.062 1.01953 72.8276 1.01953 72.5424C1.02734 72.2573 1.25781 72.0268 1.54297 72.019H23.887C24.1721 72.0268 24.4026 72.2573 24.4065 72.5424C24.4065 72.6791 24.3518 72.812 24.2542 72.9096C24.1565 73.0073 24.0237 73.062 23.887 73.062ZM50.969 72.5502C50.5159 72.5541 50.0705 72.4526 49.6682 72.2495C48.6994 71.7729 48.0823 70.7886 48.0823 69.7065V58.2495C48.0901 57.1714 48.7073 56.187 49.6721 55.7104C50.6408 55.2299 51.7932 55.3393 52.6565 55.9877L60.1253 61.6947V61.6986C60.8245 62.2338 61.2386 63.0697 61.2386 63.9525C61.2386 64.8353 60.8245 65.6713 60.1253 66.2064L52.6565 71.9056C52.1682 72.3119 51.5588 72.5384 50.926 72.5501L50.969 72.5502ZM50.969 56.4992C50.6916 56.4992 50.4182 56.5656 50.1682 56.6867C49.5315 56.9719 49.1252 57.6047 49.1252 58.3V69.761C49.133 70.4407 49.5236 71.0579 50.1369 71.3587C50.7463 71.6595 51.4767 71.5931 52.0197 71.1869L59.4885 65.4877C59.9377 65.1478 60.1994 64.6166 60.1994 64.058C60.1994 63.4955 59.9377 62.9642 59.4885 62.6244L52.0197 56.9252C51.7189 56.6634 51.3361 56.515 50.9377 56.4994L50.969 56.4992ZM23.887 66.8542H1.54297C1.25391 66.8542 1.01953 66.6199 1.01953 66.3308C1.01953 66.0456 1.25391 65.8113 1.54297 65.8113H23.887C24.1721 65.8113 24.4065 66.0456 24.4065 66.3308C24.4065 66.6199 24.1721 66.8542 23.887 66.8542ZM14.512 60.6042H1.54297C1.25781 60.5964 1.02735 60.366 1.01953 60.0808C1.01953 59.7956 1.25391 59.5613 1.54297 59.5613H14.563C14.6997 59.5613 14.8325 59.616 14.9302 59.7136C15.0278 59.8113 15.0825 59.9441 15.0825 60.0808C15.0942 60.2292 15.0473 60.3699 14.9458 60.4792C14.8481 60.5847 14.7075 60.6433 14.563 60.6433L14.512 60.6042ZM43.68 52.1237H6.40697C3.43427 52.1198 1.02807 49.7096 1.02027 46.737V22.249C1.02808 19.2802 3.43827 16.874 6.40697 16.874H43.751C46.7198 16.874 49.126 19.2802 49.126 22.249V46.8C49.1142 49.7648 46.7119 52.1594 43.751 52.1672L43.68 52.1237ZM2.01197 41.7797V46.7367C2.01197 49.1351 3.95727 51.0805 6.35577 51.0805H43.7508C46.1453 51.0766 48.0828 49.1313 48.0828 46.7367V40.1547L34.6378 26.6977C33.8643 25.9673 32.6573 25.9673 31.8878 26.6977L18.3448 40.2407V40.2368C17.1495 41.3384 15.3096 41.3384 14.1143 40.2368L10.2588 36.3813L10.2627 36.3852C9.48924 35.643 8.27048 35.643 7.50098 36.3852L2.01197 41.7797ZM6.35577 17.8227C5.19557 17.8345 4.09407 18.311 3.28547 19.143C2.48078 19.9712 2.03937 21.0922 2.06277 22.2485V40.3535L6.75027 35.666C7.31277 35.1035 8.07057 34.7871 8.86357 34.7871C9.65657 34.7871 10.4183 35.1035 10.9808 35.666L14.8363 39.5215L14.8324 39.5176C15.6019 40.2598 16.8168 40.2598 17.5824 39.5176L31.1254 25.9746V25.9785C31.6879 25.416 32.4457 25.0996 33.2387 25.0996C34.0317 25.0996 34.7934 25.416 35.3559 25.9785L48.0629 38.6855V22.2475C48.059 19.8569 46.1215 17.9194 43.7309 17.9155L6.35577 17.8227ZM75.8558 42.8227H56.0318C54.3521 42.7876 52.9966 41.4282 52.9693 39.7485V19.9245C52.9966 18.2448 54.3521 16.8854 56.0318 16.8542H75.9068C77.6138 16.8542 79.0045 18.2214 79.0318 19.9245V39.7915C79.0044 41.4946 77.6138 42.8618 75.9068 42.8618L75.8558 42.8227ZM55.9808 17.8227C55.4417 17.8227 54.9261 18.0376 54.5472 18.4165C54.1683 18.7993 53.9573 19.3149 53.9573 19.854V39.792C53.9573 40.3271 54.1683 40.8467 54.5472 41.2256C54.9261 41.6084 55.4417 41.8232 55.9808 41.8232H75.9068C77.0357 41.8232 77.9615 40.9209 77.9888 39.792V19.925C77.9614 18.7961 77.0356 17.8938 75.9068 17.8938L55.9808 17.8227ZM70.2078 34.8107H61.7508C61.4617 34.8107 61.2312 34.5764 61.2312 34.2912C61.2312 34.0021 61.4617 33.7678 61.7508 33.7678H70.2078C70.3484 33.7678 70.4812 33.8225 70.5789 33.9201C70.6765 34.0178 70.7312 34.1506 70.7312 34.2912C70.7312 34.4279 70.6765 34.5607 70.5789 34.6584C70.4812 34.756 70.3484 34.8107 70.2078 34.8107ZM70.2078 31.8537H61.7508C61.4617 31.8537 61.2312 31.6194 61.2312 31.3303C61.2312 31.0451 61.4617 30.8108 61.7508 30.8108H70.2078C70.3484 30.8108 70.4812 30.8655 70.5789 30.9631C70.6765 31.0608 70.7312 31.1936 70.7312 31.3303C70.7312 31.4709 70.6765 31.6037 70.5789 31.7014C70.4812 31.799 70.3484 31.8537 70.2078 31.8537ZM16.9578 31.6233C15.2976 31.6233 13.8016 30.6233 13.1687 29.0881C12.532 27.5569 12.8835 25.7912 14.0554 24.6154C15.2312 23.4435 16.9968 23.092 18.5281 23.7286C20.0633 24.3615 21.0633 25.8575 21.0633 27.5177C21.0672 28.6075 20.6336 29.6544 19.8641 30.4239C19.0946 31.1934 18.0476 31.6272 16.9578 31.6233ZM16.9578 24.4553C15.7195 24.4553 14.6023 25.2014 14.1297 26.3459C13.657 27.4904 13.9187 28.8068 14.7937 29.6857C15.6687 30.5607 16.9851 30.8224 18.1296 30.3497C19.2741 29.8732 20.0202 28.7559 20.0202 27.5177C20.0241 26.7052 19.7038 25.9239 19.1296 25.3458C18.5554 24.7716 17.7741 24.4474 16.9577 24.4474L16.9578 24.4553ZM70.2078 28.9045H61.7508C61.4617 28.9045 61.2312 28.6701 61.2312 28.3849C61.2312 28.0959 61.4617 27.8615 61.7508 27.8615H70.2078C70.3484 27.8615 70.4812 27.9162 70.5789 28.0138C70.6765 28.1115 70.7312 28.2443 70.7312 28.3849C70.7312 28.5216 70.6765 28.6545 70.5789 28.7521C70.4812 28.8498 70.3484 28.9045 70.2078 28.9045ZM70.2078 25.9475H61.7508C61.4617 25.9475 61.2312 25.7131 61.2312 25.424C61.2312 25.1389 61.4617 24.9045 61.7508 24.9045H70.2078C70.3484 24.9045 70.4812 24.9592 70.5789 25.0568C70.6765 25.1545 70.7312 25.2873 70.7312 25.424C70.7312 25.5646 70.6765 25.6975 70.5789 25.7951C70.4812 25.8928 70.3484 25.9475 70.2078 25.9475ZM76.1766 12.7175H3.83257C3.09038 12.7214 2.37167 12.4245 1.84427 11.9011C1.31693 11.3737 1.02005 10.6589 1.02005 9.91666V3.49866C1.02005 1.94396 2.28175 0.686157 3.83255 0.686157H76.1685C76.9146 0.686157 77.6295 0.983037 78.1569 1.51038C78.6842 2.03772 78.9811 2.75258 78.9811 3.49868V9.91668C78.9811 10.6589 78.6842 11.3737 78.1569 11.9011C77.6295 12.4245 76.9107 12.7214 76.1685 12.7175L76.1766 12.7175ZM3.83257 1.72947C2.85601 1.72947 2.06307 2.52244 2.06307 3.49897V9.91697C2.06698 10.8896 2.85995 11.6748 3.83257 11.6748H76.1686C77.1412 11.6748 77.9342 10.8896 77.9381 9.91697V3.49897C77.9381 2.52241 77.1451 1.72947 76.1686 1.72947H3.83257ZM71.0086 9.02247L71.0125 9.01856C70.0515 9.03418 69.1805 8.46387 68.8094 7.57716C68.4383 6.69435 68.6414 5.67486 69.3211 4.99906C70.0008 4.31937 71.0203 4.12406 71.9031 4.49906C72.7859 4.87406 73.3523 5.74906 73.3328 6.70606C73.3328 7.99516 72.2976 9.04586 71.0125 9.06156L71.0086 9.02247ZM71.0086 5.35447H71.0125C70.4812 5.34275 69.9969 5.64744 69.782 6.13181C69.5671 6.61619 69.6648 7.18261 70.0281 7.56931C70.3913 7.95212 70.9499 8.08103 71.4461 7.89353C71.9422 7.70603 72.2742 7.23728 72.2937 6.70603C72.2976 5.99119 71.7273 5.40523 71.0125 5.39353L71.0086 5.35447ZM62.9774 9.02247L62.9813 9.01856C62.0282 9.01856 61.1688 8.44434 60.8055 7.56546C60.4422 6.68655 60.6414 5.67486 61.3172 5.00296C61.9891 4.32718 63.0008 4.12796 63.8797 4.49124C64.7586 4.85452 65.3328 5.71394 65.3328 6.66704C65.3445 7.29595 65.1023 7.90534 64.6609 8.35844C64.2156 8.80766 63.6101 9.06156 62.9812 9.06156L62.9774 9.02247ZM62.9774 5.35447H62.9813C62.45 5.35447 61.9696 5.67478 61.7665 6.16306C61.5634 6.65525 61.6766 7.21776 62.0516 7.59276C62.4266 7.96776 62.993 8.08104 63.4813 7.87792C63.9735 7.6748 64.2938 7.19823 64.2938 6.66702C64.2743 5.95608 63.6923 5.38972 62.9813 5.39362L62.9774 5.35447ZM54.9462 9.02247L54.9501 9.01856C53.997 9.01856 53.1376 8.44434 52.7743 7.56546C52.411 6.68655 52.6102 5.67486 53.286 5.00296C53.9579 4.32718 54.9696 4.12796 55.8485 4.49124C56.7274 4.85452 57.3016 5.71394 57.3016 6.66704C57.3133 7.29595 57.0711 7.90534 56.6297 8.35844C56.1844 8.80766 55.5789 9.06156 54.95 9.06156L54.9462 9.02247ZM54.9462 5.35447H54.9501C54.4188 5.35447 53.9384 5.67478 53.7353 6.16306C53.5322 6.65525 53.6454 7.21776 54.0204 7.59276C54.3954 7.96776 54.9618 8.08104 55.4501 7.87792C55.9423 7.6748 56.2626 7.19823 56.2626 6.66702C56.2431 5.95608 55.6611 5.38972 54.9501 5.39362L54.9462 5.35447ZM31.1692 9.06147H7.15717C6.86811 9.06147 6.63764 8.82709 6.63764 8.54194V4.87394C6.63764 4.58488 6.86811 4.35441 7.15717 4.35441H31.1692C31.3059 4.35441 31.4387 4.40909 31.5364 4.50675C31.634 4.6044 31.6887 4.73722 31.6887 4.87394V8.54194C31.6887 8.67866 31.634 8.81147 31.5364 8.90913C31.4387 9.00679 31.3059 9.06147 31.1692 9.06147ZM7.70817 8.01847H30.6262V5.39347H7.70817V8.01847Z" stroke="black" mask="url(#path-1-outside-1_650_17)"/>
</svg>
