<svg width="110" height="99" viewBox="0 0 110 99" fill="none" xmlns="http://www.w3.org/2000/svg">
<g clip-path="url(#clip0_652_79)">
<path d="M75.312 66.562C70.1401 66.562 65.937 70.7651 65.937 75.937C65.937 81.1089 70.1401 85.312 75.312 85.312C80.4839 85.312 84.687 81.1089 84.687 75.937C84.687 70.7651 80.4839 66.562 75.312 66.562ZM75.312 82.187C71.8589 82.187 69.062 79.3901 69.062 75.937C69.062 72.4839 71.8589 69.687 75.312 69.687C78.7651 69.687 81.562 72.4839 81.562 75.937C81.562 79.3901 78.7651 82.187 75.312 82.187Z" fill="black"/>
<path d="M95.625 69.688H92.9844C92.7656 69.063 92.5156 68.4536 92.2344 67.8599L94.1094 65.9849C94.7031 65.3912 95.0313 64.6099 95.0313 63.7818C95.0313 62.9537 94.7032 62.1568 94.1094 61.5787L89.6875 57.1568C88.4687 55.938 86.4844 55.938 85.2656 57.1568L83.3906 59.0318C82.7969 58.7506 82.1875 58.5006 81.5625 58.2818V55.6412C81.5625 53.9224 80.1563 52.5162 78.4375 52.5162H72.1875C70.4687 52.5162 69.0625 53.9224 69.0625 55.6412V58.2818C68.4375 58.5006 67.8281 58.7506 67.2344 59.0318L65.3594 57.1568C64.1406 55.938 62.1563 55.938 60.9375 57.1568L56.5156 61.5787C55.9218 62.1725 55.5937 62.9537 55.5937 63.7818C55.5937 64.6099 55.9218 65.4068 56.5156 65.9849L58.3906 67.8599C58.1093 68.4537 57.8593 69.063 57.6406 69.688H55C53.2812 69.688 51.875 71.0942 51.875 72.813V79.063C51.875 80.7818 53.2812 82.188 55 82.188H57.6406C57.8593 82.813 58.1093 83.4224 58.3906 84.0161L56.5156 85.8911C55.9218 86.4849 55.5937 87.2661 55.5937 88.0942C55.5937 88.9223 55.9218 89.7192 56.5156 90.2973L60.9375 94.7192C62.1563 95.938 64.1406 95.938 65.3594 94.7192L67.2344 92.8442C67.8282 93.1255 68.4375 93.3755 69.0625 93.5942V96.2348C69.0625 97.9536 70.4687 99.3598 72.1875 99.3598H78.4375C80.1563 99.3598 81.5625 97.9536 81.5625 96.2348V93.5942C82.1875 93.3755 82.7969 93.1255 83.3906 92.8442L85.2656 94.7192C86.4844 95.938 88.4687 95.938 89.6875 94.7192L94.1094 90.2973C94.7031 89.7036 95.0313 88.9223 95.0313 88.0942C95.0313 87.2661 94.7032 86.4692 94.1094 85.8911L92.2344 84.0161C92.5156 83.4224 92.7656 82.813 92.9844 82.188H95.625C97.3438 82.188 98.75 80.7818 98.75 79.063V72.813C98.75 71.0942 97.3438 69.688 95.625 69.688ZM95.625 79.063H91.8438C91.1407 79.063 90.5313 79.5318 90.3438 80.2036C90.0157 81.3911 89.5469 82.5161 88.9688 83.5474C88.6251 84.1568 88.7344 84.9224 89.2344 85.4224L91.9063 88.0943L87.4844 92.5162L84.8125 89.8443C84.3125 89.3443 83.5625 89.2506 82.9375 89.5787C81.8906 90.1568 80.7656 90.6256 79.5937 90.9537C78.9218 91.1412 78.4531 91.7506 78.4531 92.4537V96.2349H72.2031V92.4537C72.2031 91.7506 71.7344 91.1412 71.0625 90.9537C69.875 90.6256 68.75 90.1568 67.7187 89.5787C67.4843 89.4381 67.2187 89.3756 66.9531 89.3756C66.5468 89.3756 66.1562 89.5318 65.8437 89.8287L63.1718 92.5006L58.7499 88.0787L61.4218 85.4068C61.9218 84.9068 62.0155 84.1568 61.6874 83.5318C61.1093 82.5006 60.6405 81.3599 60.3124 80.188C60.1249 79.5161 59.5155 79.0474 58.8124 79.0474H55.0312V72.7974H58.8124C59.5155 72.7974 60.1249 72.3287 60.3124 71.6568C60.6405 70.4693 61.1093 69.3443 61.6874 68.313C62.0312 67.7036 61.9218 66.938 61.4218 66.438L58.7499 63.7661L63.1718 59.3442L65.8437 62.0161C66.3437 62.5161 67.0937 62.6099 67.7187 62.2817C68.7656 61.7036 69.8906 61.2348 71.0625 60.9067C71.7344 60.7192 72.2031 60.1099 72.2031 59.4067V55.6255H78.4531V59.4067C78.4531 60.1099 78.9218 60.7192 79.5937 60.9067C80.7812 61.2349 81.9062 61.7036 82.9375 62.2817C83.5469 62.6255 84.3125 62.5161 84.8125 62.0161L87.4844 59.3442L91.9063 63.7661L89.2344 66.438C88.7344 66.938 88.6407 67.688 88.9688 68.313C89.5469 69.3442 90.0157 70.4849 90.3438 71.6568C90.5313 72.3287 91.1407 72.7974 91.8438 72.7974H95.625L95.625 79.063Z" fill="black"/>
<path d="M51.0622 90.219L44.0622 93.7346V75.9536H47.1872C48.0466 75.9536 48.7497 75.2504 48.7497 74.3911C48.7497 73.5317 48.0466 72.8286 47.1872 72.8286H43.2184L19.3124 44.7036H81.3124L79.2812 47.0942C78.7187 47.7504 78.7968 48.7348 79.4687 49.2973C80.125 49.8598 81.1093 49.7816 81.6718 49.1254L85.4218 44.7035H87.828C88.6874 44.7035 89.3905 44.0004 89.3905 43.141V36.891C89.3905 36.0316 88.6874 35.3285 87.828 35.3285H12.812C11.9526 35.3285 11.2495 36.0316 11.2495 36.891V43.141C11.2495 44.0004 11.9526 44.7035 12.812 44.7035H15.2182L40.9372 74.9695V96.2665C40.9372 96.8134 41.2185 97.3134 41.6716 97.5946C41.9216 97.7508 42.2028 97.829 42.4997 97.829C42.7341 97.829 42.9841 97.7665 43.2028 97.6571L52.4684 93.0165C53.234 92.6259 53.5465 91.6884 53.1716 90.9227C52.7966 90.157 51.8435 89.8289 51.0778 90.2196L51.0622 90.219ZM14.3742 41.563V38.438H86.2492V41.563H14.3742Z" fill="black"/>
<path d="M16.6251 32.188H38.5001C38.6563 32.188 38.7969 32.1411 38.9376 32.0942C39.0782 32.1411 39.2188 32.188 39.3751 32.188H61.2501C61.3751 32.188 61.4844 32.1411 61.5938 32.1255C61.7032 32.1567 61.8126 32.188 61.9376 32.188H83.8126C84.6719 32.188 85.3751 31.4849 85.3751 30.6255C85.3751 25.5786 82.3595 21.2193 78.0313 19.2505C79.6407 17.813 80.6875 15.7505 80.6875 13.438C80.6875 9.12549 77.1875 5.62549 72.875 5.62549C68.5625 5.62549 65.0625 9.12549 65.0625 13.438C65.0625 15.7661 66.0937 17.8286 67.7187 19.2505C65.0468 20.4693 62.8749 22.6099 61.6093 25.2661C60.3437 22.6099 58.1718 20.4692 55.4999 19.2505C57.1093 17.813 58.1561 15.7505 58.1561 13.438C58.1561 9.12549 54.6561 5.62549 50.3436 5.62549C46.0311 5.62549 42.5311 9.12549 42.5311 13.438C42.5311 15.7661 43.5623 17.8286 45.1873 19.2505C42.4373 20.5005 40.2185 22.7193 38.9685 25.4693C37.7185 22.7193 35.4997 20.5005 32.7497 19.2505C34.3591 17.813 35.4059 15.7505 35.4059 13.438C35.4059 9.12549 31.9059 5.62549 27.5934 5.62549C23.2809 5.62549 19.7809 9.12549 19.7809 13.438C19.7809 15.7661 20.8121 17.8286 22.4371 19.2505C18.109 21.2193 15.0933 25.563 15.0933 30.6255C15.0933 31.4849 15.7964 32.188 16.6558 32.188H16.6251ZM72.8751 8.74999C75.4532 8.74999 77.5626 10.8594 77.5626 13.4375C77.5626 16.0156 75.4532 18.125 72.8751 18.125C70.297 18.125 68.1876 16.0156 68.1876 13.4375C68.1876 10.8594 70.297 8.74999 72.8751 8.74999ZM72.8751 21.25C77.5157 21.25 81.3751 24.6406 82.1251 29.0625H63.6411C64.3911 24.6406 68.2505 21.25 72.8911 21.25H72.8751ZM50.3131 8.74999C52.8912 8.74999 55.0006 10.8594 55.0006 13.4375C55.0006 16.0156 52.8912 18.125 50.3131 18.125C47.735 18.125 45.6256 16.0156 45.6256 13.4375C45.6256 10.8594 47.735 8.74999 50.3131 8.74999ZM50.3131 21.25C54.9537 21.25 58.8131 24.6406 59.5631 29.0625H41.0791C41.8291 24.6406 45.6885 21.25 50.3291 21.25H50.3131ZM27.5631 8.74999C30.1412 8.74999 32.2506 10.8594 32.2506 13.4375C32.2506 16.0156 30.1412 18.125 27.5631 18.125C24.985 18.125 22.8756 16.0156 22.8756 13.4375C22.8756 10.8594 24.985 8.74999 27.5631 8.74999ZM27.5631 21.25C32.2037 21.25 36.0631 24.6406 36.8131 29.0625H18.3291C19.0791 24.6406 22.9385 21.25 27.5791 21.25H27.5631Z" fill="black"/>
</g>
<defs>
<clipPath id="clip0_652_79">
<rect width="110" height="99" fill="white"/>
</clipPath>
</defs>
</svg>
