<svg width="98" height="72" viewBox="0 0 98 72" fill="none" xmlns="http://www.w3.org/2000/svg">
<path d="M97.5001 34.843C97.5021 34.2856 97.3932 33.7332 97.1798 33.2182C96.9665 32.7032 96.6528 32.2357 96.2571 31.843L90.5511 26.135C89.743 25.3631 88.6686 24.9324 87.5511 24.9324C86.4336 24.9324 85.3591 25.3631 84.5511 26.135L64.7511 45.935C64.4487 46.2447 64.1954 46.5988 64.0001 46.985L63.9891 47C63.8482 47.2669 63.7365 47.5482 63.6561 47.839L60.5561 59.409C60.4663 59.7458 60.4667 60.1003 60.5571 60.4369C60.6474 60.7735 60.8247 61.0805 61.0711 61.327C61.2533 61.5113 61.4702 61.6576 61.7093 61.7575C61.9484 61.8574 62.2049 61.9089 62.4641 61.909C62.6407 61.9092 62.8165 61.886 62.9871 61.84L74.5561 58.74C74.848 58.6592 75.1304 58.5469 75.3981 58.405H75.4031C75.7911 58.2075 76.1463 57.9511 76.4561 57.645L93.2861 40.815L96.2571 37.844C96.6527 37.4511 96.9663 36.9834 97.1796 36.4683C97.393 35.9531 97.5019 35.4007 97.5001 34.843ZM65.6941 49.765L72.6301 56.7L63.1561 59.239L65.6941 49.765ZM75.0141 55.596L66.8001 47.382L82.4541 31.727L90.6691 39.941L75.0141 55.596ZM94.5141 36.096L92.4141 38.196L84.2001 29.982L86.3001 27.882C86.6327 27.5496 87.0838 27.3629 87.5541 27.3629C88.0244 27.3629 88.4754 27.5496 88.8081 27.882L94.5141 33.59C94.6789 33.7545 94.8096 33.9498 94.8988 34.1648C94.988 34.3798 95.0339 34.6103 95.0339 34.843C95.0339 35.0758 94.988 35.3063 94.8988 35.5213C94.8096 35.7363 94.6789 35.9316 94.5141 36.096Z" fill="black"/>
<path d="M86.4 51.7049C86.0729 51.7049 85.7592 51.8348 85.5278 52.066C85.2964 52.2972 85.1663 52.6108 85.166 52.938V67.4609C85.1655 67.9517 84.9703 68.4222 84.6233 68.7692C84.2763 69.1162 83.8058 69.3114 83.315 69.3119H6.818C6.32725 69.3114 5.85675 69.1162 5.50973 68.7692C5.16271 68.4222 4.96753 67.9517 4.967 67.4609V17.4929H85.167V21.2819C85.1761 21.603 85.3101 21.9079 85.5404 22.1317C85.7708 22.3556 86.0793 22.4808 86.4005 22.4808C86.7217 22.4808 87.0302 22.3556 87.2606 22.1317C87.4909 21.9079 87.6249 21.603 87.634 21.2819V4.53895C87.6327 3.39415 87.1773 2.29662 86.3678 1.48712C85.5583 0.677626 84.4608 0.222271 83.316 0.220947H6.818C5.6732 0.222271 4.57567 0.677626 3.76617 1.48712C2.95668 2.29662 2.50132 3.39415 2.5 4.53895V67.4609C2.50132 68.6057 2.95668 69.7033 3.76617 70.5128C4.57567 71.3223 5.6732 71.7776 6.818 71.7789H83.311C84.4558 71.7776 85.5533 71.3223 86.3628 70.5128C87.1723 69.7033 87.6277 68.6057 87.629 67.4609V52.938C87.6287 52.6117 87.4993 52.2988 87.269 52.0678C87.0387 51.8367 86.7262 51.7063 86.4 51.7049ZM6.818 2.68795H83.311C83.8018 2.68848 84.2723 2.88366 84.6193 3.23068C84.9663 3.57769 85.1615 4.04819 85.162 4.53895V15.0259H4.967V4.53895C4.96753 4.04819 5.16271 3.57769 5.50973 3.23068C5.85675 2.88366 6.32725 2.68848 6.818 2.68795Z" fill="black"/>
<path d="M11.136 12.558C11.8678 12.558 12.5832 12.341 13.1916 11.9344C13.8001 11.5278 14.2743 10.95 14.5544 10.2739C14.8344 9.5978 14.9077 8.85386 14.7649 8.13613C14.6222 7.4184 14.2698 6.75912 13.7523 6.24167C13.2349 5.72421 12.5756 5.37182 11.8579 5.22905C11.1401 5.08629 10.3962 5.15956 9.72011 5.43961C9.04402 5.71965 8.46616 6.19389 8.0596 6.80235C7.65304 7.41081 7.43604 8.12617 7.43604 8.85796C7.43762 9.83877 7.82795 10.779 8.52149 11.4725C9.21503 12.166 10.1552 12.5564 11.136 12.558ZM11.136 7.62296C11.38 7.62336 11.6184 7.69607 11.8211 7.8319C12.0237 7.96773 12.1816 8.1606 12.2747 8.38611C12.3678 8.61163 12.3919 8.85969 12.3441 9.09893C12.2962 9.33817 12.1786 9.55786 12.0059 9.73024C11.8332 9.90261 11.6134 10.0199 11.374 10.0674C11.1347 10.1148 10.8867 10.0903 10.6613 9.99684C10.436 9.90338 10.2434 9.74521 10.1079 9.54233C9.97236 9.33944 9.90004 9.10094 9.90003 8.85696C9.90056 8.5295 10.031 8.21563 10.2628 7.98427C10.4945 7.75291 10.8086 7.62296 11.136 7.62296Z" fill="black"/>
<path d="M21.0069 12.558C21.7387 12.558 22.454 12.341 23.0625 11.9344C23.671 11.5278 24.1452 10.95 24.4252 10.2739C24.7053 9.5978 24.7786 8.85386 24.6358 8.13613C24.493 7.4184 24.1406 6.75912 23.6232 6.24167C23.1057 5.72421 22.4464 5.37182 21.7287 5.22905C21.011 5.08629 20.267 5.15956 19.591 5.43961C18.9149 5.71965 18.337 6.19389 17.9304 6.80235C17.5239 7.41081 17.3069 8.12617 17.3069 8.85796C17.3069 9.83926 17.6967 10.7804 18.3906 11.4743C19.0845 12.1681 20.0256 12.558 21.0069 12.558ZM21.0069 7.62296C21.2509 7.62316 21.4894 7.6957 21.6922 7.83141C21.895 7.96713 22.053 8.15992 22.1462 8.38542C22.2395 8.61092 22.2638 8.85901 22.2161 9.09832C22.1683 9.33762 22.0507 9.55741 21.8781 9.72988C21.7055 9.90236 21.4856 10.0198 21.2463 10.0673C21.0069 10.1149 20.7589 10.0904 20.5334 9.99693C20.308 9.9035 20.1153 9.74534 19.9798 9.54243C19.8442 9.33952 19.7719 9.10098 19.7719 8.85696C19.7721 8.52959 19.9024 8.21572 20.134 7.98433C20.3655 7.75294 20.6795 7.62296 21.0069 7.62296Z" fill="black"/>
<path d="M30.876 12.558C31.6078 12.558 32.3232 12.341 32.9316 11.9344C33.5401 11.5278 34.0143 10.95 34.2944 10.2739C34.5744 9.5978 34.6477 8.85386 34.5049 8.13613C34.3622 7.4184 34.0098 6.75912 33.4923 6.24167C32.9749 5.72421 32.3156 5.37182 31.5979 5.22905C30.8801 5.08629 30.1362 5.15956 29.4601 5.43961C28.784 5.71965 28.2061 6.19389 27.7996 6.80235C27.393 7.41081 27.176 8.12617 27.176 8.85796C27.1776 9.83877 27.5679 10.779 28.2615 11.4725C28.955 12.166 29.8952 12.5564 30.876 12.558ZM30.876 7.62296C31.1201 7.62296 31.3587 7.69533 31.5616 7.83093C31.7645 7.96652 31.9227 8.15925 32.0161 8.38473C32.1095 8.61021 32.1339 8.85833 32.0863 9.0977C32.0387 9.33708 31.9212 9.55695 31.7486 9.72953C31.576 9.90211 31.3561 10.0196 31.1168 10.0673C30.8774 10.1149 30.6293 10.0904 30.4038 9.99703C30.1783 9.90363 29.9856 9.74547 29.85 9.54254C29.7144 9.33961 29.642 9.10102 29.642 8.85696C29.6426 8.52985 29.7727 8.21628 30.004 7.98498C30.2353 7.75367 30.5489 7.62349 30.876 7.62296Z" fill="black"/>
<path d="M13.5999 59.442C13.435 59.4373 13.2708 59.4658 13.117 59.5256C12.9633 59.5855 12.8231 59.6756 12.7047 59.7906C12.5864 59.9056 12.4924 60.0432 12.4281 60.1952C12.3639 60.3472 12.3308 60.5105 12.3308 60.6755C12.3308 60.8405 12.3639 61.0039 12.4281 61.1559C12.4924 61.3079 12.5864 61.4454 12.7047 61.5604C12.8231 61.6754 12.9633 61.7655 13.117 61.8254C13.2708 61.8853 13.435 61.9137 13.5999 61.909H56.8299C57.151 61.8999 57.4558 61.7659 57.6797 61.5356C57.9036 61.3053 58.0288 60.9967 58.0288 60.6755C58.0288 60.3543 57.9036 60.0458 57.6797 59.8155C57.4558 59.5851 57.151 59.4512 56.8299 59.442H13.5999Z" fill="black"/>
<path d="M71.9249 34.767C71.9251 34.605 71.8933 34.4445 71.8314 34.2948C71.7695 34.1451 71.6787 34.0091 71.5642 33.8945C71.4496 33.7799 71.3137 33.6889 71.164 33.6269C71.0144 33.5649 70.8539 33.533 70.6919 33.533H13.5999C13.435 33.5283 13.2708 33.5567 13.117 33.6166C12.9633 33.6765 12.8231 33.7666 12.7047 33.8816C12.5864 33.9966 12.4924 34.1341 12.4281 34.2861C12.3639 34.4381 12.3308 34.6015 12.3308 34.7665C12.3308 34.9315 12.3639 35.0948 12.4281 35.2468C12.4924 35.3988 12.5864 35.5364 12.7047 35.6514C12.8231 35.7664 12.9633 35.8565 13.117 35.9164C13.2708 35.9762 13.435 36.0047 13.5999 36H70.6919C70.8539 36 71.0142 35.9681 71.1638 35.9061C71.3134 35.8441 71.4493 35.7533 71.5638 35.6388C71.6783 35.5243 71.7691 35.3884 71.8311 35.2388C71.893 35.0892 71.9249 34.9289 71.9249 34.767Z" fill="black"/>
<path d="M77.7599 26.13C77.7589 25.8035 77.6284 25.4906 77.3971 25.26C77.1658 25.0295 76.8525 24.9 76.5259 24.9H13.5999C13.435 24.8953 13.2708 24.9238 13.117 24.9836C12.9633 25.0435 12.8231 25.1336 12.7047 25.2486C12.5864 25.3636 12.4924 25.5012 12.4281 25.6532C12.3639 25.8052 12.3308 25.9685 12.3308 26.1335C12.3308 26.2985 12.3639 26.4619 12.4281 26.6139C12.4924 26.7659 12.5864 26.9034 12.7047 27.0184C12.8231 27.1334 12.9633 27.2235 13.117 27.2834C13.2708 27.3433 13.435 27.3717 13.5999 27.367H76.5259C76.6882 27.367 76.8489 27.335 76.9989 27.2728C77.1488 27.2106 77.2849 27.1194 77.3996 27.0045C77.5142 26.8896 77.605 26.7533 77.6669 26.6032C77.7287 26.4531 77.7603 26.2923 77.7599 26.13Z" fill="black"/>
<path d="M59.9319 52.0389C59.9321 51.877 59.9003 51.7167 59.8385 51.567C59.7766 51.4174 59.6859 51.2814 59.5715 51.1668C59.4571 51.0522 59.3213 50.9613 59.1717 50.8992C59.0222 50.8371 58.8619 50.8051 58.6999 50.8049H13.5999C13.435 50.8002 13.2708 50.8287 13.117 50.8886C12.9633 50.9484 12.8231 51.0385 12.7047 51.1535C12.5864 51.2686 12.4924 51.4061 12.4281 51.5581C12.3639 51.7101 12.3308 51.8734 12.3308 52.0384C12.3308 52.2034 12.3639 52.3668 12.4281 52.5188C12.4924 52.6708 12.5864 52.8083 12.7047 52.9233C12.8231 53.0383 12.9633 53.1285 13.117 53.1883C13.2708 53.2482 13.435 53.2766 13.5999 53.2719H58.6999C59.0268 53.2717 59.3401 53.1417 59.5712 52.9105C59.8022 52.6792 59.9319 52.3658 59.9319 52.0389Z" fill="black"/>
<path d="M63.2909 43.4C63.2907 43.0731 63.1607 42.7596 62.9295 42.5284C62.6983 42.2973 62.3849 42.1673 62.0579 42.167H13.5999C13.435 42.1623 13.2708 42.1907 13.117 42.2506C12.9633 42.3105 12.8231 42.4006 12.7047 42.5156C12.5864 42.6306 12.4924 42.7682 12.4281 42.9202C12.3639 43.0722 12.3308 43.2355 12.3308 43.4005C12.3308 43.5655 12.3639 43.7288 12.4281 43.8808C12.4924 44.0328 12.5864 44.1704 12.7047 44.2854C12.8231 44.4004 12.9633 44.4905 13.117 44.5504C13.2708 44.6103 13.435 44.6387 13.5999 44.634H62.0579C62.385 44.6337 62.6987 44.5036 62.9299 44.2722C63.1611 44.0408 63.2909 43.7271 63.2909 43.4Z" fill="black"/>
</svg>
