<svg width="123" height="123" viewBox="0 0 123 123" fill="none" xmlns="http://www.w3.org/2000/svg">
<path d="M72.9492 41.1272H50.5763V36.6526H72.9492V41.1272ZM46.1018 36.6526H23.7289V41.1272H46.1018V36.6526ZM59.5255 47.839H41.6272V52.3136H59.5255V47.839ZM23.7289 52.3136H37.1526V47.839H23.7289V52.3136ZM23.7289 63.5H46.1018V59.0255H23.7289V63.5ZM23.7289 106.008H28.2035V94.822H23.7289V106.008ZM37.1526 106.008V88.1102H32.678V106.008H37.1526ZM46.1018 106.008V92.5847H41.6272V106.008H46.1018ZM55.0509 106.008V81.3983H50.5763V106.008H55.0509ZM55.0509 70.2119H23.7289V74.6865H55.0509V70.2119ZM10.3052 110.483V16.517C10.3072 14.7376 11.015 13.0315 12.2733 11.7733C13.5315 10.515 15.2376 9.8072 17.017 9.80518H93.0848C94.8642 9.80717 96.5703 10.515 97.8286 11.7732C99.0868 13.0315 99.7946 14.7376 99.7966 16.517V38.8899H95.322V16.517C95.3212 15.9239 95.0853 15.3553 94.6659 14.9359C94.2465 14.5165 93.6779 14.2806 93.0848 14.2797H79.661V20.9916C79.659 22.7711 78.9513 24.4771 77.693 25.7354C76.4347 26.9937 74.7287 27.7015 72.9492 27.7035H37.1526C35.3731 27.7014 33.6671 26.9937 32.4088 25.7354C31.1506 24.4771 30.4428 22.7711 30.4408 20.9916V14.2797H17.017C16.4239 14.2806 15.8553 14.5165 15.4359 14.9359C15.0165 15.3553 14.7806 15.9239 14.7798 16.517V110.483C14.7806 111.076 15.0165 111.645 15.4359 112.064C15.8553 112.484 16.4239 112.72 17.017 112.72H93.0848C93.6779 112.72 94.2465 112.484 94.6659 112.064C95.0853 111.645 95.3212 111.076 95.322 110.483V101.534H99.7966V110.483C99.7946 112.263 99.0868 113.969 97.8286 115.227C96.5703 116.485 94.8642 117.193 93.0848 117.195H17.017C15.2376 117.193 13.5315 116.485 12.2733 115.227C11.015 113.969 10.3072 112.263 10.3052 110.483ZM34.9153 20.9916C34.9161 21.5847 35.1521 22.1533 35.5715 22.5727C35.9909 22.9921 36.5595 23.2281 37.1526 23.2289H72.9492C73.5423 23.2281 74.1109 22.9921 74.5303 22.5727C74.9497 22.1533 75.1857 21.5847 75.1865 20.9916V14.2797H34.9153V20.9916ZM117.695 70.2119C117.695 75.9644 115.99 81.5876 112.794 86.3706C109.598 91.1537 105.055 94.8816 99.7409 97.083C94.4264 99.2844 88.5784 99.8604 82.9364 98.7382C77.2945 97.616 72.112 94.846 68.0444 90.7784C63.9768 86.7108 61.2067 81.5284 60.0844 75.8865C58.9621 70.2446 59.538 64.3966 61.7394 59.082C63.9407 53.7674 67.6685 49.2249 72.4515 46.029C77.2345 42.8331 82.8577 41.1272 88.6102 41.1272C96.3212 41.1361 103.714 44.2032 109.167 49.6557C114.619 55.1082 117.686 62.5008 117.695 70.2119ZM90.8475 59.2509C92.2489 59.5382 93.5817 60.0933 94.7729 60.8856L104.349 51.3094C100.523 48.1118 95.8131 46.1577 90.8475 45.708L90.8475 59.2509ZM88.6102 63.5C87.2827 63.5 85.985 63.8937 84.8813 64.6312C83.7775 65.3687 82.9172 66.4169 82.4092 67.6434C81.9012 68.8698 81.7683 70.2193 82.0273 71.5213C82.2863 72.8233 82.9255 74.0192 83.8642 74.9579C84.8028 75.8966 85.9988 76.5358 87.3008 76.7948C88.6027 77.0538 89.9523 76.9209 91.1787 76.4128C92.4051 75.9048 93.4534 75.0446 94.1909 73.9408C94.9284 72.8371 95.322 71.5394 95.322 70.2119C95.32 68.4324 94.6122 66.7264 93.354 65.4681C92.0957 64.2098 90.3897 63.5021 88.6102 63.5ZM104.349 89.1146L94.7729 79.5382C93.3972 80.4474 91.8376 81.0411 90.2055 81.2768C88.5735 81.5125 86.9096 81.3844 85.3329 80.9017C83.7562 80.4189 82.3058 79.5935 81.0855 78.4845C79.8652 77.3754 78.9053 76.0103 78.2745 74.4867C77.6437 72.9632 77.3576 71.3191 77.4367 69.672C77.5158 68.025 77.9582 66.4158 78.7321 64.9598C79.5061 63.5037 80.5924 62.2369 81.9134 61.2499C83.2343 60.2629 84.7572 59.5803 86.3729 59.2509V45.708C82.5299 46.0559 78.8225 47.3026 75.5502 49.3476C72.2779 51.3926 69.5324 54.1784 67.5354 57.4802C65.5385 60.782 64.346 64.5072 64.0543 68.3549C63.7626 72.2026 64.3799 76.065 65.8563 79.6301C67.3327 83.1952 69.6269 86.3631 72.5535 88.878C75.4802 91.3929 78.9572 93.1843 82.7039 94.1075C86.4506 95.0306 90.3618 95.0598 94.1218 94.1924C97.8818 93.3251 101.385 91.5857 104.349 89.1146ZM113.221 70.2119C113.226 64.4581 111.205 58.8861 107.513 54.473L97.9365 64.0492C99.1495 65.8756 99.7966 68.0194 99.7966 70.2119C99.7966 72.4044 99.1495 74.5482 97.9365 76.3746L107.513 85.951C111.205 81.5378 113.226 75.9658 113.221 70.2119Z" fill="black"/>
</svg>
