<svg width="110" height="93" viewBox="0 0 110 93" fill="none" xmlns="http://www.w3.org/2000/svg">
<g clip-path="url(#clip0_652_70)">
<mask id="path-1-outside-1_652_70" maskUnits="userSpaceOnUse" x="19.0225" y="-1.42163" width="72" height="92" fill="black">
<rect fill="white" x="19.0225" y="-1.42163" width="72" height="92"/>
<path d="M73.4261 71.453H36.5741C35.6952 71.453 34.8905 71.8592 34.371 72.5702C33.8476 73.2811 33.7031 74.1718 33.9687 75.0116L37.9179 87.5116C38.2812 88.6522 39.3281 89.4218 40.5234 89.4218H69.4844C70.6797 89.4218 71.7305 88.6561 72.0899 87.5116L76.0391 75.0116C76.3047 74.1717 76.1563 73.2811 75.6368 72.5702C75.1172 71.8592 74.3126 71.453 73.4337 71.453H73.4261ZM73.8011 74.3046L69.8519 86.8046C69.8012 86.9686 69.6488 87.078 69.4808 87.078H40.5198C40.348 87.078 40.1995 86.9686 40.1488 86.8046L36.1996 74.3046C36.1488 74.1405 36.2152 74.0155 36.2581 73.9569C36.3011 73.8983 36.4027 73.7968 36.5746 73.7968H73.4266C73.5984 73.7968 73.7 73.8983 73.743 73.9569C73.7859 74.0155 73.8519 74.1405 73.8011 74.3046ZM89.4491 28.8206C88.9257 28.1096 88.1249 27.7034 87.2421 27.7034H22.7581C21.8753 27.7034 21.0745 28.1096 20.5511 28.8206C20.0316 29.5315 19.8871 30.4222 20.1527 31.262L24.098 43.762C24.4574 44.9065 25.5082 45.6722 26.7074 45.6722H83.3014C84.5006 45.6722 85.5475 44.9066 85.9069 43.762L89.8561 31.262C90.1217 30.4221 89.9772 29.5315 89.4577 28.8206H89.4491ZM87.6132 30.555L83.664 43.055C83.6133 43.219 83.4648 43.3284 83.2929 43.3284H26.7029C26.5311 43.3284 26.3826 43.219 26.3319 43.055L22.3827 30.555C22.3319 30.3909 22.3983 30.2659 22.4412 30.2073C22.4842 30.1487 22.5819 30.0471 22.7537 30.0471H87.2418C87.4136 30.0471 87.5152 30.1487 87.5543 30.2073C87.5972 30.2659 87.664 30.3909 87.6132 30.555ZM80.332 49.578H29.664C28.7851 49.578 27.9804 49.9842 27.4609 50.6952C26.9375 51.4061 26.793 52.2968 27.0586 53.1366L31.0039 65.6366C31.3633 66.7811 32.4141 67.5468 33.6133 67.5468H76.3903C77.5895 67.5468 78.6364 66.7811 78.9958 65.6366L82.945 53.1366C83.2106 52.2967 83.0622 51.4061 82.5427 50.6952C82.0231 49.9842 81.2185 49.578 80.3396 49.578H80.332ZM80.7031 52.4296L76.7539 64.9296C76.7031 65.0897 76.5508 65.203 76.3828 65.203H33.6058C33.4379 65.203 33.2855 65.0897 33.2347 64.9296L29.2855 52.4296C29.2348 52.2655 29.3012 52.1405 29.3441 52.0819C29.3871 52.0233 29.4887 51.9217 29.6566 51.9217H80.3286C80.5005 51.9217 80.5982 52.0233 80.6411 52.0819C80.6841 52.1405 80.7505 52.2655 80.6997 52.4296H80.7031ZM47.5431 12.1366C47.0861 11.6795 47.0861 10.9374 47.5431 10.4804C48.0002 10.0234 48.7423 10.0233 49.1993 10.4804L53.8282 15.1093V0.750269C53.8282 0.101829 54.3517 -0.421631 55.0001 -0.421631C55.6486 -0.421631 56.172 0.101809 56.172 0.750269V15.1093L60.8009 10.4804C61.258 10.0233 62.0001 10.0233 62.4571 10.4804C62.9141 10.9374 62.9142 11.6796 62.4571 12.1366L56.9337 17.66C56.4025 18.1951 55.6993 18.4607 55.0001 18.4607C54.3009 18.4607 53.5978 18.1951 53.0665 17.66L47.5431 12.1366ZM74.1051 12.1366C73.6481 11.6795 73.6481 10.9374 74.1051 10.4804C74.5622 10.0234 75.3043 10.0233 75.7613 10.4804L80.3902 15.1093V0.750269C80.3902 0.101829 80.9137 -0.421631 81.5621 -0.421631C82.2106 -0.421631 82.734 0.101809 82.734 0.750269V15.1093L87.3629 10.4804C87.82 10.0233 88.5621 10.0233 89.0191 10.4804C89.4761 10.9374 89.4762 11.6796 89.0191 12.1366L83.4957 17.66C82.9645 18.1951 82.2613 18.4607 81.5621 18.4607C80.8629 18.4607 80.1598 18.1951 79.6285 17.66L74.1051 12.1366ZM20.9801 12.1366C20.5231 11.6795 20.5231 10.9374 20.9801 10.4804C21.4372 10.0234 22.1793 10.0233 22.6363 10.4804L27.2652 15.1093V0.750269C27.2652 0.101829 27.7887 -0.421631 28.4371 -0.421631C29.0856 -0.421631 29.609 0.101809 29.609 0.750269V15.1093L34.2379 10.4804C34.695 10.0233 35.4371 10.0233 35.8941 10.4804C36.3511 10.9374 36.3512 11.6796 35.8941 12.1366L30.3707 17.66C29.8395 18.1951 29.1363 18.4607 28.4371 18.4607C27.7379 18.4607 27.0348 18.1951 26.5035 17.66L20.9801 12.1366Z"/>
</mask>
<path d="M73.4261 71.453H36.5741C35.6952 71.453 34.8905 71.8592 34.371 72.5702C33.8476 73.2811 33.7031 74.1718 33.9687 75.0116L37.9179 87.5116C38.2812 88.6522 39.3281 89.4218 40.5234 89.4218H69.4844C70.6797 89.4218 71.7305 88.6561 72.0899 87.5116L76.0391 75.0116C76.3047 74.1717 76.1563 73.2811 75.6368 72.5702C75.1172 71.8592 74.3126 71.453 73.4337 71.453H73.4261ZM73.8011 74.3046L69.8519 86.8046C69.8012 86.9686 69.6488 87.078 69.4808 87.078H40.5198C40.348 87.078 40.1995 86.9686 40.1488 86.8046L36.1996 74.3046C36.1488 74.1405 36.2152 74.0155 36.2581 73.9569C36.3011 73.8983 36.4027 73.7968 36.5746 73.7968H73.4266C73.5984 73.7968 73.7 73.8983 73.743 73.9569C73.7859 74.0155 73.8519 74.1405 73.8011 74.3046ZM89.4491 28.8206C88.9257 28.1096 88.1249 27.7034 87.2421 27.7034H22.7581C21.8753 27.7034 21.0745 28.1096 20.5511 28.8206C20.0316 29.5315 19.8871 30.4222 20.1527 31.262L24.098 43.762C24.4574 44.9065 25.5082 45.6722 26.7074 45.6722H83.3014C84.5006 45.6722 85.5475 44.9066 85.9069 43.762L89.8561 31.262C90.1217 30.4221 89.9772 29.5315 89.4577 28.8206H89.4491ZM87.6132 30.555L83.664 43.055C83.6133 43.219 83.4648 43.3284 83.2929 43.3284H26.7029C26.5311 43.3284 26.3826 43.219 26.3319 43.055L22.3827 30.555C22.3319 30.3909 22.3983 30.2659 22.4412 30.2073C22.4842 30.1487 22.5819 30.0471 22.7537 30.0471H87.2418C87.4136 30.0471 87.5152 30.1487 87.5543 30.2073C87.5972 30.2659 87.664 30.3909 87.6132 30.555ZM80.332 49.578H29.664C28.7851 49.578 27.9804 49.9842 27.4609 50.6952C26.9375 51.4061 26.793 52.2968 27.0586 53.1366L31.0039 65.6366C31.3633 66.7811 32.4141 67.5468 33.6133 67.5468H76.3903C77.5895 67.5468 78.6364 66.7811 78.9958 65.6366L82.945 53.1366C83.2106 52.2967 83.0622 51.4061 82.5427 50.6952C82.0231 49.9842 81.2185 49.578 80.3396 49.578H80.332ZM80.7031 52.4296L76.7539 64.9296C76.7031 65.0897 76.5508 65.203 76.3828 65.203H33.6058C33.4379 65.203 33.2855 65.0897 33.2347 64.9296L29.2855 52.4296C29.2348 52.2655 29.3012 52.1405 29.3441 52.0819C29.3871 52.0233 29.4887 51.9217 29.6566 51.9217H80.3286C80.5005 51.9217 80.5982 52.0233 80.6411 52.0819C80.6841 52.1405 80.7505 52.2655 80.6997 52.4296H80.7031ZM47.5431 12.1366C47.0861 11.6795 47.0861 10.9374 47.5431 10.4804C48.0002 10.0234 48.7423 10.0233 49.1993 10.4804L53.8282 15.1093V0.750269C53.8282 0.101829 54.3517 -0.421631 55.0001 -0.421631C55.6486 -0.421631 56.172 0.101809 56.172 0.750269V15.1093L60.8009 10.4804C61.258 10.0233 62.0001 10.0233 62.4571 10.4804C62.9141 10.9374 62.9142 11.6796 62.4571 12.1366L56.9337 17.66C56.4025 18.1951 55.6993 18.4607 55.0001 18.4607C54.3009 18.4607 53.5978 18.1951 53.0665 17.66L47.5431 12.1366ZM74.1051 12.1366C73.6481 11.6795 73.6481 10.9374 74.1051 10.4804C74.5622 10.0234 75.3043 10.0233 75.7613 10.4804L80.3902 15.1093V0.750269C80.3902 0.101829 80.9137 -0.421631 81.5621 -0.421631C82.2106 -0.421631 82.734 0.101809 82.734 0.750269V15.1093L87.3629 10.4804C87.82 10.0233 88.5621 10.0233 89.0191 10.4804C89.4761 10.9374 89.4762 11.6796 89.0191 12.1366L83.4957 17.66C82.9645 18.1951 82.2613 18.4607 81.5621 18.4607C80.8629 18.4607 80.1598 18.1951 79.6285 17.66L74.1051 12.1366ZM20.9801 12.1366C20.5231 11.6795 20.5231 10.9374 20.9801 10.4804C21.4372 10.0234 22.1793 10.0233 22.6363 10.4804L27.2652 15.1093V0.750269C27.2652 0.101829 27.7887 -0.421631 28.4371 -0.421631C29.0856 -0.421631 29.609 0.101809 29.609 0.750269V15.1093L34.2379 10.4804C34.695 10.0233 35.4371 10.0233 35.8941 10.4804C36.3511 10.9374 36.3512 11.6796 35.8941 12.1366L30.3707 17.66C29.8395 18.1951 29.1363 18.4607 28.4371 18.4607C27.7379 18.4607 27.0348 18.1951 26.5035 17.66L20.9801 12.1366Z" fill="black"/>
<path d="M73.4261 71.453H36.5741C35.6952 71.453 34.8905 71.8592 34.371 72.5702C33.8476 73.2811 33.7031 74.1718 33.9687 75.0116L37.9179 87.5116C38.2812 88.6522 39.3281 89.4218 40.5234 89.4218H69.4844C70.6797 89.4218 71.7305 88.6561 72.0899 87.5116L76.0391 75.0116C76.3047 74.1717 76.1563 73.2811 75.6368 72.5702C75.1172 71.8592 74.3126 71.453 73.4337 71.453H73.4261ZM73.8011 74.3046L69.8519 86.8046C69.8012 86.9686 69.6488 87.078 69.4808 87.078H40.5198C40.348 87.078 40.1995 86.9686 40.1488 86.8046L36.1996 74.3046C36.1488 74.1405 36.2152 74.0155 36.2581 73.9569C36.3011 73.8983 36.4027 73.7968 36.5746 73.7968H73.4266C73.5984 73.7968 73.7 73.8983 73.743 73.9569C73.7859 74.0155 73.8519 74.1405 73.8011 74.3046ZM89.4491 28.8206C88.9257 28.1096 88.1249 27.7034 87.2421 27.7034H22.7581C21.8753 27.7034 21.0745 28.1096 20.5511 28.8206C20.0316 29.5315 19.8871 30.4222 20.1527 31.262L24.098 43.762C24.4574 44.9065 25.5082 45.6722 26.7074 45.6722H83.3014C84.5006 45.6722 85.5475 44.9066 85.9069 43.762L89.8561 31.262C90.1217 30.4221 89.9772 29.5315 89.4577 28.8206H89.4491ZM87.6132 30.555L83.664 43.055C83.6133 43.219 83.4648 43.3284 83.2929 43.3284H26.7029C26.5311 43.3284 26.3826 43.219 26.3319 43.055L22.3827 30.555C22.3319 30.3909 22.3983 30.2659 22.4412 30.2073C22.4842 30.1487 22.5819 30.0471 22.7537 30.0471H87.2418C87.4136 30.0471 87.5152 30.1487 87.5543 30.2073C87.5972 30.2659 87.664 30.3909 87.6132 30.555ZM80.332 49.578H29.664C28.7851 49.578 27.9804 49.9842 27.4609 50.6952C26.9375 51.4061 26.793 52.2968 27.0586 53.1366L31.0039 65.6366C31.3633 66.7811 32.4141 67.5468 33.6133 67.5468H76.3903C77.5895 67.5468 78.6364 66.7811 78.9958 65.6366L82.945 53.1366C83.2106 52.2967 83.0622 51.4061 82.5427 50.6952C82.0231 49.9842 81.2185 49.578 80.3396 49.578H80.332ZM80.7031 52.4296L76.7539 64.9296C76.7031 65.0897 76.5508 65.203 76.3828 65.203H33.6058C33.4379 65.203 33.2855 65.0897 33.2347 64.9296L29.2855 52.4296C29.2348 52.2655 29.3012 52.1405 29.3441 52.0819C29.3871 52.0233 29.4887 51.9217 29.6566 51.9217H80.3286C80.5005 51.9217 80.5982 52.0233 80.6411 52.0819C80.6841 52.1405 80.7505 52.2655 80.6997 52.4296H80.7031ZM47.5431 12.1366C47.0861 11.6795 47.0861 10.9374 47.5431 10.4804C48.0002 10.0234 48.7423 10.0233 49.1993 10.4804L53.8282 15.1093V0.750269C53.8282 0.101829 54.3517 -0.421631 55.0001 -0.421631C55.6486 -0.421631 56.172 0.101809 56.172 0.750269V15.1093L60.8009 10.4804C61.258 10.0233 62.0001 10.0233 62.4571 10.4804C62.9141 10.9374 62.9142 11.6796 62.4571 12.1366L56.9337 17.66C56.4025 18.1951 55.6993 18.4607 55.0001 18.4607C54.3009 18.4607 53.5978 18.1951 53.0665 17.66L47.5431 12.1366ZM74.1051 12.1366C73.6481 11.6795 73.6481 10.9374 74.1051 10.4804C74.5622 10.0234 75.3043 10.0233 75.7613 10.4804L80.3902 15.1093V0.750269C80.3902 0.101829 80.9137 -0.421631 81.5621 -0.421631C82.2106 -0.421631 82.734 0.101809 82.734 0.750269V15.1093L87.3629 10.4804C87.82 10.0233 88.5621 10.0233 89.0191 10.4804C89.4761 10.9374 89.4762 11.6796 89.0191 12.1366L83.4957 17.66C82.9645 18.1951 82.2613 18.4607 81.5621 18.4607C80.8629 18.4607 80.1598 18.1951 79.6285 17.66L74.1051 12.1366ZM20.9801 12.1366C20.5231 11.6795 20.5231 10.9374 20.9801 10.4804C21.4372 10.0234 22.1793 10.0233 22.6363 10.4804L27.2652 15.1093V0.750269C27.2652 0.101829 27.7887 -0.421631 28.4371 -0.421631C29.0856 -0.421631 29.609 0.101809 29.609 0.750269V15.1093L34.2379 10.4804C34.695 10.0233 35.4371 10.0233 35.8941 10.4804C36.3511 10.9374 36.3512 11.6796 35.8941 12.1366L30.3707 17.66C29.8395 18.1951 29.1363 18.4607 28.4371 18.4607C27.7379 18.4607 27.0348 18.1951 26.5035 17.66L20.9801 12.1366Z" stroke="black" stroke-width="2" mask="url(#path-1-outside-1_652_70)"/>
</g>
<defs>
<clipPath id="clip0_652_70">
<rect width="110" height="93" fill="white"/>
</clipPath>
</defs>
</svg>
