<svg width="98" height="95" viewBox="0 0 98 95" fill="none" xmlns="http://www.w3.org/2000/svg">
<path d="M91.6621 50.624L81.8971 41.102C81.4181 40.635 80.6691 40.59 80.1381 40.996L70.9501 48.011H56.8041C56.0591 48.011 55.4561 48.614 55.4561 49.359V53.506C55.4561 54.25 56.0591 54.854 56.8041 54.854C57.5491 54.854 58.1521 54.251 58.1521 53.506V50.707H70.4581L73.8251 60.067H24.1751L27.5421 50.707H39.8481V53.506C39.8481 54.25 40.4511 54.854 41.1961 54.854C41.9411 54.854 42.5441 54.251 42.5441 53.506V49.359C42.5441 48.615 41.9411 48.011 41.1961 48.011H27.0501L17.8621 40.996C17.3311 40.59 16.5821 40.635 16.1031 41.102L6.33806 50.624C6.04606 50.909 5.89806 51.312 5.93706 51.718C5.97606 52.125 6.19806 52.492 6.53906 52.716L20.9091 62.143V93.483C20.9091 94.227 21.5121 94.831 22.2571 94.831H75.7421C76.4861 94.831 77.0901 94.228 77.0901 93.483V62.143L91.4601 52.716C91.8021 52.492 92.0231 52.125 92.0621 51.718C92.1021 51.311 91.9551 50.909 91.6621 50.624ZM17.1511 43.845L24.9911 49.831L21.5671 59.35L9.42106 51.382L17.1511 43.845ZM23.6051 92.135V62.762H74.3951V92.134L23.6051 92.135ZM76.4331 59.35L73.0091 49.831L80.8491 43.845L88.5791 51.382L76.4331 59.35ZM30.1491 40.62C30.2631 40.62 30.3781 40.606 30.4911 40.576L38.2571 38.536C38.6141 39.396 39.0121 40.248 39.4521 41.09L38.0971 43.825C37.7751 44.473 37.8111 45.227 38.1931 45.843C38.5741 46.457 39.2341 46.824 39.9571 46.824H58.0431C58.7661 46.824 59.4261 46.457 59.8071 45.842C60.1881 45.227 60.2241 44.474 59.9031 43.826L58.5481 41.091C58.9881 40.249 59.3861 39.397 59.7431 38.537L67.5091 40.577C67.6221 40.607 67.7371 40.621 67.8511 40.621C68.1881 40.621 68.5181 40.494 68.7711 40.259C69.1091 39.943 69.2621 39.476 69.1761 39.022L67.3671 29.496C67.0331 27.737 65.6781 26.402 63.9141 26.093L61.9591 25.751C61.8931 24.617 61.7591 23.484 61.5541 22.356C60.3541 15.758 56.7731 9.43202 51.1991 4.06202C49.9661 2.87402 48.0341 2.87402 46.8011 4.06202C41.2271 9.43202 37.6461 15.758 36.4461 22.356C36.2411 23.484 36.1071 24.617 36.0411 25.751L34.0861 26.093C32.3221 26.401 30.9671 27.737 30.6331 29.496L28.8241 39.022C28.7381 39.476 28.8901 39.943 29.2291 40.259C29.4821 40.493 29.8121 40.62 30.1491 40.62ZM40.9561 44.127L41.8051 42.413H56.1951L57.0441 44.127H40.9561ZM64.7181 29.997L66.1291 37.426L60.6701 35.992C61.4451 33.529 61.8861 31.015 61.9861 28.491L63.4491 28.747C64.1171 28.864 64.5911 29.331 64.7181 29.997ZM48.6711 6.00202C48.8551 5.82402 49.1441 5.82402 49.3281 6.00202C51.6641 8.25302 53.5981 10.645 55.1231 13.133H42.8771C44.4021 10.645 46.3351 8.25202 48.6711 6.00202ZM41.4011 15.828H56.5991C60.3111 23.512 60.2681 31.905 56.2231 39.718H41.7761C37.7321 31.906 37.6891 23.513 41.4011 15.828ZM33.2821 29.997C33.4091 29.331 33.8831 28.864 34.5511 28.747L36.0141 28.491C36.1141 31.015 36.5561 33.529 37.3301 35.992L31.8711 37.426L33.2821 29.997ZM52.9021 48.011C53.6471 48.011 54.2501 48.614 54.2501 49.359V55.63C54.2501 56.374 53.6471 56.978 52.9021 56.978C52.1571 56.978 51.5541 56.375 51.5541 55.63V49.359C51.5541 48.615 52.1581 48.011 52.9021 48.011ZM45.0981 48.011C45.8431 48.011 46.4461 48.614 46.4461 49.359V55.63C46.4461 56.374 45.8431 56.978 45.0981 56.978C44.3531 56.978 43.7501 56.375 43.7501 55.63V49.359C43.7501 48.615 44.3541 48.011 45.0981 48.011ZM49.0001 48.011C49.7451 48.011 50.3481 48.614 50.3481 49.359V57.754C50.3481 58.498 49.7451 59.102 49.0001 59.102C48.2551 59.102 47.6521 58.499 47.6521 57.754V49.359C47.6521 48.615 48.2551 48.011 49.0001 48.011ZM49.0001 30.429C52.7961 30.429 55.8841 27.341 55.8841 23.545C55.8841 19.749 52.7961 16.661 49.0001 16.661C45.2041 16.661 42.1161 19.749 42.1161 23.545C42.1161 27.341 45.2041 30.429 49.0001 30.429ZM49.0001 19.357C51.3091 19.357 53.1881 21.236 53.1881 23.545C53.1881 25.854 51.3091 27.733 49.0001 27.733C46.6911 27.733 44.8121 25.854 44.8121 23.545C44.8121 21.236 46.6911 19.357 49.0001 19.357ZM36.9331 81.532H28.3681C27.2281 81.532 26.3011 82.459 26.3011 83.599V87.373C26.3011 88.513 27.2281 89.44 28.3681 89.44H36.9331C38.0731 89.44 39.0001 88.513 39.0001 87.373V83.599C38.9991 82.459 38.0721 81.532 36.9331 81.532ZM36.3041 86.743H28.9971V84.227H36.3041V86.743Z" fill="black"/>
</svg>
