<svg width="110" height="88" viewBox="0 0 110 88" fill="none" xmlns="http://www.w3.org/2000/svg">
<path d="M90.836 19.1019C90.1211 13.7581 85.5352 9.62535 80 9.62535H36.77L24.688 0.56285C24.2153 0.20738 23.5825 0.14879 23.0513 0.41441C22.5239 0.68004 22.188 1.2191 22.188 1.81281V9.62531H20.6255C14.5943 9.62531 9.6875 14.5315 9.6875 20.5633V58.0633C9.6875 63.5985 13.8203 68.1843 19.1641 68.8993C19.8789 74.2431 24.4649 78.3759 30.0001 78.3759H73.2301L85.3121 87.4384C85.9254 87.8993 86.7965 87.8525 87.3512 87.2939C87.6559 86.9892 87.8082 86.5908 87.8082 86.1884V78.3759H89.3707C95.4019 78.3759 100.309 73.4697 100.309 67.4379L100.313 29.9379C100.313 24.4027 96.1798 19.8169 90.836 19.1019ZM19.063 29.938V65.7189C15.5005 64.9924 12.813 61.8361 12.813 58.0627V20.5627C12.813 16.2541 16.3169 12.7502 20.6255 12.7502H23.7505C24.6138 12.7502 25.313 12.051 25.313 11.1877V4.93775L35.313 12.4377C35.5825 12.6409 35.9106 12.7502 36.2505 12.7502H80.0005C83.7739 12.7502 86.9302 15.4377 87.6567 19.0002H30.0007C23.9695 19.0002 19.063 23.9062 19.063 29.938ZM97.188 67.438C97.188 71.7466 93.6841 75.2505 89.3755 75.2505H86.2505C85.3872 75.2505 84.688 75.9497 84.688 76.813V83.063L74.688 75.563C74.4185 75.3598 74.0903 75.2505 73.7505 75.2505H30.0005C25.6919 75.2505 22.188 71.7466 22.188 67.438V29.938C22.188 25.6294 25.6919 22.1255 30.0005 22.1255H89.3755C93.6841 22.1255 97.188 25.6294 97.188 29.938V67.438Z" fill="black"/>
<path d="M39.375 44C36.7891 44 34.6875 46.1016 34.6875 48.6875C34.6875 51.2734 36.7891 53.375 39.375 53.375C41.9609 53.375 44.0625 51.2734 44.0625 48.6875C44.0625 46.1016 41.9609 44 39.375 44ZM39.375 50.25C38.5117 50.25 37.8125 49.5508 37.8125 48.6875C37.8125 47.8242 38.5117 47.125 39.375 47.125C40.2383 47.125 40.9375 47.8242 40.9375 48.6875C40.9375 49.5508 40.2383 50.25 39.375 50.25Z" fill="black"/>
<path d="M59.688 44C57.1021 44 55.0005 46.1016 55.0005 48.6875C55.0005 51.2734 57.1021 53.375 59.688 53.375C62.2739 53.375 64.3755 51.2734 64.3755 48.6875C64.3755 46.1016 62.2739 44 59.688 44ZM59.688 50.25C58.8247 50.25 58.1255 49.5508 58.1255 48.6875C58.1255 47.8242 58.8247 47.125 59.688 47.125C60.5513 47.125 61.2505 47.8242 61.2505 48.6875C61.2505 49.5508 60.5513 50.25 59.688 50.25Z" fill="black"/>
<path d="M80 44C77.4141 44 75.3125 46.1016 75.3125 48.6875C75.3125 51.2734 77.4141 53.375 80 53.375C82.5859 53.375 84.6875 51.2734 84.6875 48.6875C84.6875 46.1016 82.5859 44 80 44ZM80 50.25C79.1367 50.25 78.4375 49.5508 78.4375 48.6875C78.4375 47.8242 79.1367 47.125 80 47.125C80.8633 47.125 81.5625 47.8242 81.5625 48.6875C81.5625 49.5508 80.8633 50.25 80 50.25Z" fill="black"/>
</svg>
