<svg width="64" height="62" viewBox="0 0 64 62" fill="none" xmlns="http://www.w3.org/2000/svg">
<g clip-path="url(#clip0_651_41)">
<path d="M8 37H10C10.0056 35.2667 10.6542 33.597 11.8201 32.3144C12.9861 31.0317 14.5864 30.2273 16.3114 30.0568C18.0364 29.8863 19.7633 30.3618 21.1577 31.3914C22.5522 32.421 23.5151 33.9313 23.86 35.63C22.0205 37.6438 21.0004 40.2726 21 43H23C23 40.6131 23.9482 38.3239 25.636 36.6361C27.3239 34.9482 29.6131 34 32 34C34.3869 34 36.6761 34.9482 38.364 36.6361C40.0518 38.3239 41 40.6131 41 43H43C42.9996 40.2726 41.9795 37.6438 40.14 35.63C40.4849 33.9313 41.4478 32.421 42.8423 31.3914C44.2367 30.3618 45.9636 29.8863 47.6886 30.0568C49.4136 30.2273 51.0139 31.0317 52.1799 32.3144C53.3458 33.597 53.9944 35.2667 54 37H56C55.9998 35.2084 55.4648 33.4576 54.4636 31.9718C53.4624 30.486 52.0405 29.3329 50.38 28.66C51.1236 27.9797 51.6443 27.0906 51.8737 26.1093C52.1031 25.1279 52.0307 24.1001 51.6658 23.1606C51.3009 22.2212 50.6606 21.4139 49.8289 20.8447C48.9971 20.2755 48.0128 19.9709 47.005 19.9709C45.9972 19.9709 45.0129 20.2755 44.1811 20.8447C43.3494 21.4139 42.7091 22.2212 42.3442 23.1606C41.9793 24.1001 41.9069 25.1279 42.1363 26.1093C42.3657 27.0906 42.8864 27.9797 43.63 28.66C42.4284 29.1436 41.3453 29.8809 40.4548 30.8215C39.5643 31.7621 38.8872 32.8838 38.47 34.11C37.634 33.5044 36.7188 33.0165 35.75 32.66C36.7204 31.8831 37.4255 30.8239 37.7679 29.6289C38.1103 28.4339 38.0731 27.1621 37.6614 25.9891C37.2497 24.8162 36.4838 23.8001 35.4697 23.0812C34.4555 22.3624 33.2431 21.9763 32 21.9763C30.7569 21.9763 29.5445 22.3624 28.5303 23.0812C27.5162 23.8001 26.7503 24.8162 26.3386 25.9891C25.9269 27.1621 25.8897 28.4339 26.2321 29.6289C26.5745 30.8239 27.2796 31.8831 28.25 32.66C27.2812 33.0165 26.366 33.5044 25.53 34.11C25.1128 32.8838 24.4357 31.7621 23.5452 30.8215C22.6547 29.8809 21.5716 29.1436 20.37 28.66C21.1136 27.9797 21.6343 27.0906 21.8637 26.1093C22.0931 25.1279 22.0207 24.1001 21.6558 23.1606C21.2909 22.2212 20.6506 21.4139 19.8189 20.8447C18.9871 20.2755 18.0028 19.9709 16.995 19.9709C15.9872 19.9709 15.0029 20.2755 14.1711 20.8447C13.3394 21.4139 12.6991 22.2212 12.3342 23.1606C11.9693 24.1001 11.8969 25.1279 12.1263 26.1093C12.3557 27.0906 12.8764 27.9797 13.62 28.66C11.9595 29.3329 10.5376 30.486 9.53642 31.9718C8.53521 33.4576 8.00024 35.2084 8 37ZM44 25C44 24.4067 44.1759 23.8267 44.5056 23.3333C44.8352 22.84 45.3038 22.4555 45.852 22.2284C46.4001 22.0013 47.0033 21.9419 47.5853 22.0577C48.1672 22.1734 48.7018 22.4592 49.1213 22.8787C49.5409 23.2983 49.8266 23.8328 49.9424 24.4148C50.0581 24.9967 49.9987 25.5999 49.7716 26.1481C49.5446 26.6963 49.1601 27.1648 48.6667 27.4944C48.1734 27.8241 47.5933 28 47 28C46.2044 28 45.4413 27.684 44.8787 27.1214C44.3161 26.5587 44 25.7957 44 25ZM28 28C28 27.2089 28.2346 26.4356 28.6741 25.7778C29.1136 25.12 29.7384 24.6073 30.4693 24.3045C31.2002 24.0018 32.0044 23.9226 32.7804 24.0769C33.5563 24.2312 34.269 24.6122 34.8284 25.1716C35.3878 25.731 35.7688 26.4438 35.9231 27.2197C36.0775 27.9956 35.9983 28.7999 35.6955 29.5308C35.3928 30.2617 34.8801 30.8864 34.2223 31.3259C33.5645 31.7654 32.7911 32 32 32C30.9391 32 29.9217 31.5786 29.1716 30.8285C28.4214 30.0783 28 29.0609 28 28ZM14 25C14 24.4067 14.1759 23.8267 14.5056 23.3333C14.8352 22.84 15.3038 22.4555 15.8519 22.2284C16.4001 22.0013 17.0033 21.9419 17.5853 22.0577C18.1672 22.1734 18.7018 22.4592 19.1213 22.8787C19.5409 23.2983 19.8266 23.8328 19.9424 24.4148C20.0581 24.9967 19.9987 25.5999 19.7716 26.1481C19.5446 26.6963 19.1601 27.1648 18.6667 27.4944C18.1734 27.8241 17.5933 28 17 28C16.2044 28 15.4413 27.684 14.8787 27.1214C14.3161 26.5587 14 25.7957 14 25Z" fill="black"/>
<path d="M53.66 2.24996C53.5156 2.12312 53.3378 2.04057 53.1477 2.01219C52.9576 1.9838 52.7634 2.01079 52.5883 2.08992C52.4131 2.16904 52.2645 2.29696 52.1602 2.45835C52.0559 2.61974 52.0002 2.80778 52 2.99996V5.99996H13C10.0826 5.99996 7.28473 7.15888 5.22183 9.22178C3.15893 11.2847 2 14.0826 2 17V49H4V17C4 14.613 4.94821 12.3238 6.63604 10.636C8.32387 8.94817 10.6131 7.99996 13 7.99996H53C53.2652 7.99996 53.5196 7.8946 53.7071 7.70706C53.8946 7.51953 54 7.26517 54 6.99996V5.19996L59.48 9.99996L54 14.8V13C54 12.7347 53.8946 12.4804 53.7071 12.2928C53.5196 12.1053 53.2652 12 53 12H13C11.6739 12 10.4021 12.5267 9.46447 13.4644C8.52678 14.4021 8 15.6739 8 17V22H10V17C10 16.2043 10.3161 15.4412 10.8787 14.8786C11.4413 14.316 12.2044 14 13 14H52V17C52.0002 17.1921 52.0559 17.3802 52.1602 17.5416C52.2645 17.703 52.4131 17.8309 52.5883 17.91C52.7634 17.9891 52.9576 18.0161 53.1477 17.9877C53.3378 17.9593 53.5156 17.8768 53.66 17.75L61.66 10.75C61.7664 10.6561 61.8516 10.5407 61.91 10.4114C61.9684 10.2821 61.9986 10.1418 61.9986 9.99996C61.9986 9.85808 61.9684 9.71783 61.91 9.58852C61.8516 9.45921 61.7664 9.3438 61.66 9.24996L53.66 2.24996Z" fill="black"/>
<path d="M60 47C60 49.3869 59.0518 51.6761 57.364 53.364C55.6762 55.0518 53.387 56 51 56H11C10.7348 56 10.4805 56.1054 10.2929 56.2929C10.1054 56.4804 10 56.7348 10 57V58.8L4.52003 54L10 49.2V51C10 51.2652 10.1054 51.5196 10.2929 51.7071C10.4805 51.8946 10.7348 52 11 52H51C52.3261 52 53.5979 51.4732 54.5356 50.5355C55.4732 49.5979 56 48.3261 56 47V42H54V47C54 47.7956 53.684 48.5587 53.1213 49.1213C52.5587 49.6839 51.7957 50 51 50H12V47C11.9998 46.8078 11.9442 46.6198 11.8398 46.4584C11.7355 46.297 11.5869 46.1691 11.4118 46.09C11.2366 46.0108 11.0424 45.9838 10.8523 46.0122C10.6623 46.0406 10.4844 46.1232 10.34 46.25L2.34003 53.25C2.23362 53.3438 2.1484 53.4593 2.09003 53.5886C2.03165 53.7179 2.00146 53.8581 2.00146 54C2.00146 54.1419 2.03165 54.2821 2.09003 54.4114C2.1484 54.5407 2.23362 54.6562 2.34003 54.75L10.34 61.75C10.4842 61.8765 10.6618 61.9588 10.8515 61.9872C11.0412 62.0156 11.2351 61.9888 11.41 61.91C11.5855 61.8311 11.7345 61.7033 11.8391 61.5419C11.9438 61.3805 11.9996 61.1924 12 61V58H51C53.9174 58 56.7153 56.8411 58.7782 54.7782C60.8411 52.7153 62 49.9174 62 47V15H60V47Z" fill="black"/>
</g>
<defs>
<clipPath id="clip0_651_41">
<rect width="64" height="62" fill="white"/>
</clipPath>
</defs>
</svg>
