<svg width="110" height="80" viewBox="0 0 110 80" fill="none" xmlns="http://www.w3.org/2000/svg">
<path fill-rule="evenodd" clip-rule="evenodd" d="M65.6051 79.621C63.8121 79.621 62.0153 79.2772 60.3239 78.5858L40.4649 70.5194C38.1094 69.5584 35.5587 69.3475 33.086 69.9061L29.3048 70.7655C28.7501 70.8905 28.1993 70.5428 28.0743 69.9881C27.9493 69.4334 28.2969 68.8826 28.8477 68.7576L32.6289 67.8983C35.5156 67.2459 38.4883 67.492 41.2344 68.6131L61.0934 76.6795C64.2223 77.9568 67.7536 77.8475 70.7809 76.3748L96.1759 64.0978C96.215 64.0783 96.254 64.0587 96.2931 64.0392C97.6564 63.3244 98.2072 61.629 97.5158 60.2384C96.9025 59.0157 95.5041 58.3907 94.1955 58.7618L72.8515 64.7071C72.3046 64.8594 71.7382 64.543 71.5859 63.9923C71.4336 63.4454 71.75 62.879 72.3008 62.7267L93.6408 56.7814C95.8986 56.1446 98.301 57.2111 99.3556 59.3205C100.551 61.7346 99.5821 64.6682 97.1994 65.883C97.1525 65.9103 97.1056 65.9337 97.0548 65.9533L71.6798 78.2263C69.7696 79.1521 67.6876 79.6208 65.6017 79.6208L65.6051 79.621Z" fill="black"/>
<path fill-rule="evenodd" clip-rule="evenodd" d="M69.1479 68.559C68.7182 68.559 68.2807 68.4965 67.8549 68.3637L52.0539 63.5121C51.511 63.3441 51.2063 62.7699 51.3742 62.2269C51.5422 61.6839 52.1164 61.3792 52.6594 61.5472L68.4644 66.3988C69.6871 66.7777 71.0191 66.1058 71.441 64.8988C71.4449 64.8949 71.4449 64.8871 71.4489 64.8832C71.5348 64.6449 71.5778 64.3793 71.5778 64.0863C71.5778 63.9691 71.5778 63.9027 71.57 63.8402C71.57 63.8285 71.5661 63.8168 71.5661 63.8051C71.4879 63.059 71.0621 62.4027 70.4254 62.0316L51.0155 54.1449C46.7264 52.4027 42.0194 51.7191 37.4105 52.1683L29.1878 52.9887C28.6253 53.0433 28.1214 52.6332 28.0628 52.0668C28.0081 51.5004 28.4182 50.9965 28.9846 50.9418L37.2112 50.1215C42.1526 49.641 47.1956 50.3715 51.7892 52.2387L71.2622 60.1528C71.3013 60.1684 71.3364 60.184 71.3716 60.2035C72.6177 60.891 73.4536 62.1489 73.6099 63.5708C73.6373 63.77 73.6373 63.9379 73.6373 64.0864C73.6373 64.6176 73.5513 65.1176 73.3833 65.5825C72.7466 67.395 71.0005 68.5552 69.1567 68.5552L69.1479 68.559Z" fill="black"/>
<path fill-rule="evenodd" clip-rule="evenodd" d="M21.2229 73.816H27.5627C27.844 73.816 28.0627 73.5972 28.0744 73.3082V49.0382C28.0744 48.7686 27.8557 48.546 27.5822 48.546H21.2228L21.2229 73.816ZM27.5627 75.8707H20.1955C19.6252 75.8707 19.1682 75.4097 19.1682 74.8434V47.5194C19.1682 46.953 19.6252 46.4921 20.1955 46.4921H27.5822C28.9884 46.4921 30.1291 47.6366 30.1291 49.039V73.324V73.3474C30.0979 74.7615 28.9689 75.8707 27.5627 75.8707Z" fill="black"/>
<path fill-rule="evenodd" clip-rule="evenodd" d="M12.1797 75.199H19.168V47.164H12.1797V75.199ZM20.1953 77.2537H11.1523C10.5859 77.2537 10.125 76.7928 10.125 76.2264V46.1364C10.125 45.57 10.5859 45.1091 11.1523 45.1091H20.1953C20.7617 45.1091 21.2226 45.5701 21.2226 46.1364V76.2264C21.2226 76.7928 20.7656 77.2537 20.1953 77.2537Z" fill="black"/>
<path fill-rule="evenodd" clip-rule="evenodd" d="M61.668 41.609C61.5782 41.609 61.4883 41.5973 61.3985 41.5739C57.1173 40.4216 54.129 36.5192 54.129 32.0856C54.129 31.5192 54.5899 31.0583 55.1563 31.0583H59.6172C60.1875 31.0583 60.6445 31.5192 60.6445 32.0856C60.6445 33.9176 62.125 35.4059 63.9453 35.4059C65.7773 35.4059 67.2656 33.9254 67.2656 32.1051C67.2656 30.2731 65.7851 28.7848 63.9648 28.7848C58.5429 28.7848 54.1289 24.3825 54.1289 18.9645C54.1289 14.5309 57.1172 10.6286 61.3984 9.47618C61.9453 9.32774 62.5117 9.65196 62.6562 10.1988C62.8046 10.7457 62.4765 11.3121 61.9296 11.4566C58.5468 12.3668 56.1796 15.4527 56.1796 18.9605C56.1796 23.2417 59.6718 26.7222 63.9608 26.7222C66.9139 26.7222 69.3163 29.1324 69.3163 32.0972C69.3163 35.0503 66.9061 37.4527 63.9413 37.4527C61.3397 37.4527 59.164 35.5777 58.6874 33.105H56.2499C56.6601 36.1753 58.8827 38.7612 61.9296 39.5816C62.4765 39.7301 62.8007 40.2926 62.6562 40.8394C62.5351 41.2965 62.1171 41.6012 61.664 41.6012L61.668 41.609Z" fill="black"/>
<path fill-rule="evenodd" clip-rule="evenodd" d="M66.227 41.629C65.7739 41.629 65.3638 41.3282 65.2349 40.8712C65.0864 40.3243 65.4067 39.7579 65.9536 39.6095C69.3325 38.6798 71.688 35.6017 71.688 32.1212C71.7036 27.836 68.231 24.336 63.9419 24.3204C60.9849 24.3204 58.5747 21.9102 58.5747 18.9493C58.5747 15.9845 60.9849 13.5743 63.9458 13.5743C66.5591 13.5743 68.7388 15.4454 69.2231 17.922H71.6606C71.2504 14.8517 69.0278 12.2658 65.9809 11.4454C65.434 11.3009 65.1098 10.7345 65.2543 10.1876C65.4028 9.64073 65.9653 9.31652 66.5121 9.46495C70.7933 10.6172 73.7816 14.5196 73.7816 18.9532C73.7816 19.5197 73.3207 19.9805 72.7543 19.9805H68.2895C67.7231 19.9805 67.2622 19.5196 67.2622 18.9532C67.2622 17.1212 65.7739 15.6329 63.9419 15.6329C62.1138 15.6329 60.6216 17.1212 60.6216 18.9532C60.6216 20.7813 62.1099 22.2735 63.9419 22.2735C69.3677 22.2931 73.7622 26.7188 73.7427 32.1329C73.7427 36.5274 70.7622 40.422 66.4966 41.5977C66.4068 41.6212 66.3131 41.6368 66.2232 41.6368L66.227 41.629Z" fill="black"/>
<path fill-rule="evenodd" clip-rule="evenodd" d="M66.246 45.117H61.6679C61.1015 45.117 60.6406 44.656 60.6406 44.0897V40.5819C60.6406 40.0116 61.1016 39.5546 61.6679 39.5546C62.2382 39.5546 62.6952 40.0116 62.6952 40.5819V43.0624H65.2186V40.5819C65.2186 40.0116 65.6796 39.5546 66.2459 39.5546C66.8123 39.5546 67.2732 40.0116 67.2732 40.5819V44.0897C67.2732 44.6561 66.8124 45.117 66.246 45.117Z" fill="black"/>
<path fill-rule="evenodd" clip-rule="evenodd" d="M66.2459 11.48C65.6795 11.48 65.2186 11.0191 65.2186 10.4527V7.9722H62.6952V10.4527C62.6952 11.0191 62.2382 11.48 61.6679 11.48C61.1015 11.48 60.6406 11.0191 60.6406 10.4527V6.9449C60.6406 6.37849 61.1016 5.9176 61.6679 5.9176H66.2499C66.8163 5.9176 67.2772 6.37854 67.2772 6.9449V10.4527C67.2772 11.0191 66.8163 11.48 66.2499 11.48H66.2459Z" fill="black"/>
<path fill-rule="evenodd" clip-rule="evenodd" d="M63.969 2.43803C51.242 2.43803 40.887 12.793 40.887 25.52C40.887 38.247 51.242 48.602 63.969 48.602C76.696 48.602 87.051 38.247 87.051 25.52C87.051 12.793 76.696 2.43803 63.969 2.43803ZM63.969 50.653C50.11 50.653 38.832 39.376 38.832 25.516C38.832 11.656 50.109 0.379028 63.969 0.379028C77.832 0.379028 89.106 11.656 89.106 25.516C89.106 39.376 77.829 50.653 63.969 50.653Z" fill="black"/>
</svg>
