<svg width="92" height="82" viewBox="0 0 92 82" fill="none" xmlns="http://www.w3.org/2000/svg">
<path d="M7.17992 7.06998C7.17992 6.19107 7.89867 5.46838 8.78152 5.46838C9.66043 5.46838 10.3831 6.18713 10.3831 7.06998C10.3831 7.94889 9.66437 8.67158 8.78152 8.67158C7.89867 8.67158 7.17992 7.96064 7.17992 7.06998ZM15.2502 8.67158C16.1291 8.67158 16.8518 7.95283 16.8518 7.06998C16.8518 6.19107 16.1331 5.46838 15.2502 5.46838C14.3713 5.46838 13.6486 6.18713 13.6486 7.06998C13.6486 7.96061 14.3596 8.67158 15.2502 8.67158ZM21.7111 8.67158C22.59 8.67158 23.3127 7.95283 23.3127 7.06998C23.3127 6.19107 22.594 5.46838 21.7111 5.46838C20.8322 5.46838 20.1095 6.18713 20.1095 7.06998C20.1095 7.96061 20.8283 8.67158 21.7111 8.67158ZM52.5201 8.01142H69.0711C69.5906 8.01142 70.0125 7.58954 70.0125 7.07001C70.0125 6.55048 69.5906 6.1286 69.0711 6.1286H52.5201C52.0006 6.1286 51.5787 6.55048 51.5787 7.07001C51.5787 7.58954 52.0006 8.01142 52.5201 8.01142ZM37.6921 36.0504V39.2301C37.6921 40.1012 37.071 40.8512 36.2116 40.9996L34.4421 41.3199C34.1609 42.3199 33.7624 43.2887 33.2507 44.1988L34.2819 45.6793C34.7819 46.3981 34.6921 47.3707 34.071 47.9801L31.821 50.2301C31.1999 50.8512 30.2312 50.9294 29.5202 50.4411L28.0397 49.4099C27.1295 49.9216 26.1608 50.32 25.1686 50.6013L24.8483 52.3708C24.6881 53.2302 23.9498 53.8513 23.0788 53.8513H19.8991C19.028 53.8513 18.278 53.2302 18.1296 52.3708L17.8093 50.6013C16.8093 50.32 15.8405 49.9216 14.9304 49.4099L13.4499 50.4411C12.7311 50.9411 11.7702 50.8512 11.1491 50.2301L8.89906 47.9801C8.27797 47.359 8.19984 46.402 8.68812 45.6793L9.71932 44.1988C9.2076 43.2887 8.80916 42.3199 8.52792 41.3277L6.73882 40.9996C5.87944 40.8395 5.25832 40.1012 5.25832 39.2301V36.0504C5.25832 35.1793 5.87941 34.4293 6.73882 34.2809L8.50832 33.9606C8.78957 32.9606 9.18801 31.9918 9.69972 31.0817L8.66852 29.6012C8.16852 28.8825 8.25836 27.9215 8.87946 27.3004L11.1295 25.0504C11.7505 24.4293 12.7193 24.3512 13.4303 24.8395L14.9108 25.8707C15.8209 25.3589 16.7897 24.9605 17.7819 24.6793L18.1022 22.9098C18.2623 22.0504 19.0006 21.4293 19.8717 21.4293H23.0514C23.9225 21.4293 24.6725 22.0504 24.8209 22.9098L25.1412 24.6793C26.1412 24.9605 27.11 25.359 28.0123 25.8707L29.4928 24.8395C30.2115 24.3395 31.1842 24.4293 31.7936 25.0504L34.0436 27.3004C34.6647 27.9215 34.7428 28.8785 34.2545 29.6012L33.2233 31.0817C33.735 31.9919 34.1335 32.9606 34.4147 33.9528L36.1842 34.2731C37.0709 34.4294 37.6921 35.1716 37.6921 36.0504ZM35.8091 36.1094L34.0474 35.7891C33.3677 35.668 32.8169 35.168 32.6372 34.5C32.3872 33.6094 32.0357 32.7617 31.5786 31.9492C31.2388 31.3398 31.27 30.6094 31.6685 30.039L32.688 28.5702L30.5278 26.41L29.059 27.4295C28.4887 27.828 27.7582 27.8592 27.1488 27.5194C26.348 27.0701 25.4886 26.7108 24.598 26.4608C23.9261 26.2693 23.4378 25.7303 23.3089 25.0506L23.0003 23.3006H19.9495L19.6292 25.0623C19.5081 25.7419 19.0081 26.2928 18.3401 26.4725C17.4612 26.7225 16.6018 27.074 15.7893 27.5311C15.1799 27.8709 14.4495 27.8396 13.8791 27.4412L12.4103 26.4217L10.2501 28.5819L11.2696 30.0507C11.668 30.621 11.6993 31.3515 11.3594 31.9609C10.9102 32.7617 10.5508 33.6211 10.3008 34.5117C10.1094 35.1836 9.57034 35.6719 8.89061 35.8008L7.12891 36.1211V39.1719L8.89061 39.4922C9.5703 39.6133 10.1211 40.1133 10.3008 40.7813C10.5508 41.6602 10.9024 42.5196 11.3594 43.3321C11.6992 43.9415 11.668 44.6719 11.2696 45.2423L10.2501 46.7111L12.4103 48.8713L13.8791 47.8518C14.4494 47.4534 15.1877 47.4221 15.7893 47.762C16.59 48.2112 17.4495 48.5706 18.3401 48.8206C19.0119 49.012 19.5003 49.5511 19.6292 50.2308L19.9495 51.9925L23.0003 51.9886L23.3206 50.2269C23.4417 49.5472 23.9417 48.9964 24.6097 48.8167C25.4886 48.5667 26.348 48.2151 27.1605 47.7581C27.7699 47.4182 28.5003 47.4495 29.0707 47.8479L30.5395 48.8674L32.6997 46.7072L31.6802 45.2384C31.2817 44.6681 31.2505 43.9298 31.5903 43.3282C32.0396 42.5274 32.3989 41.668 32.6489 40.7774C32.8403 40.1055 33.3794 39.6172 34.0591 39.4883L35.8208 39.168V36.1094L35.8091 36.1094ZM29.3989 37.6406C29.3989 42.0117 25.8481 45.5625 21.477 45.5625C17.1059 45.5625 13.5551 42.0117 13.5551 37.6406C13.5551 33.2695 17.1059 29.7187 21.477 29.7187C25.8403 29.7109 29.3989 33.2695 29.3989 37.6406ZM27.52 37.6406C27.52 34.3125 24.8091 31.6015 21.4809 31.6015C18.1527 31.6015 15.4418 34.3124 15.4418 37.6406C15.4418 40.9688 18.1527 43.6797 21.4809 43.6797C24.8091 43.6797 27.52 40.9688 27.52 37.6406ZM92 76.8986C92 78.0978 91.5391 79.2189 90.6992 80.0588C89.8594 80.8987 88.7383 81.3596 87.539 81.3596C86.3398 81.3596 85.2187 80.8987 84.3788 80.0588L76.8202 72.5002C76.3515 72.0315 76.0897 71.4104 76.0897 70.7502C76.0897 70.4807 76.1405 70.219 76.2304 69.969L71.4921 65.2307C68.203 67.6096 64.2733 68.9221 60.1401 68.9221C55.0112 68.9221 50.351 66.9026 46.8701 63.6409H5.58907C2.51097 63.6409 -0.000732422 61.1292 -0.000732422 58.0511V6.21907C-0.000732422 3.14097 2.51097 0.629272 5.58907 0.629272H70.6591C73.7372 0.629272 76.2489 3.14097 76.2489 6.21907V34.6411L82.6083 32.3911C82.87 32.3012 83.159 32.3208 83.3895 32.4614C83.6278 32.602 83.788 32.8325 83.8387 33.102L87.1903 51.204C87.2607 51.5634 87.1122 51.9345 86.8114 52.1454C86.5106 52.3564 86.12 52.3759 85.7997 52.1962L80.6591 49.2274C80.288 49.6571 79.9091 50.0672 79.5185 50.4657C79.3388 54.2548 78.0693 57.8446 75.8779 60.8637L80.6084 65.5942C80.8584 65.5161 81.1201 65.4536 81.3897 65.4536C82.0498 65.4536 82.6788 65.7153 83.1514 66.1841L90.71 73.7426C91.5381 74.5786 92 75.7112 92 76.8986ZM82.1914 34.5316L67.7934 39.6332L71.852 41.9848C72.0708 42.1137 72.2309 42.3129 72.2934 42.5629C72.352 42.8012 72.3247 43.0629 72.1919 43.2817C69.7427 47.4106 66.1411 50.6333 61.7819 52.602C59.9733 53.4223 57.9616 54.0239 55.9733 54.352C58.2116 55.1332 60.5944 55.5434 62.985 55.5434C69.5358 55.5434 75.626 52.5942 79.696 47.4536C79.985 47.0825 80.4967 46.9927 80.9069 47.2231L84.9772 49.5747L82.1914 34.5316ZM64.6294 39.3402C64.6607 38.9808 64.9107 38.6605 65.2505 38.5394L67.2817 37.8207C65.1411 36.5121 62.7114 35.809 60.1528 35.809C52.5942 35.809 46.4538 41.9574 46.4538 49.508C46.4538 57.0666 52.6022 63.207 60.1528 63.207C65.5122 63.207 70.3248 60.0664 72.5508 55.3359C69.6016 56.6757 66.3594 57.3867 63 57.3867C59.0781 57.3867 55.2109 56.3867 51.801 54.5078C51.4221 54.2968 51.2424 53.8594 51.3518 53.4492C51.4612 53.039 51.8323 52.75 52.2619 52.75H52.2737C55.1135 52.789 58.3049 52.1015 61.0237 50.8711C64.7425 49.1914 67.8635 46.5195 70.0823 43.1094L65.094 40.2305C64.7815 40.0508 64.6021 39.6996 64.6294 39.3402ZM1.87942 6.21922V11.6294H74.3674V6.21922C74.3674 4.16842 72.7072 2.50832 70.6565 2.50832L5.59052 2.51223C3.53972 2.51223 1.87942 4.17242 1.87942 6.21922ZM5.59032 61.7622H45.1103C42.3798 58.4224 40.7392 54.1528 40.7392 49.5122C40.7392 38.8132 49.4501 30.1022 60.1492 30.1022C65.239 30.1022 69.989 32.0514 73.6292 35.571L74.3792 35.3093V13.5083L1.87922 13.5122V58.0512C1.87922 60.102 3.53962 61.7622 5.59032 61.7622ZM60.1413 67.0395C68.903 67.0395 76.0823 60.7504 77.4303 52.3405C76.6686 52.9499 75.8717 53.5124 75.0514 54.0202C73.0709 60.5514 67.0123 65.0902 60.1534 65.0902C51.5636 65.0902 44.5754 58.1019 44.5754 49.5122C44.5754 40.9224 51.5637 33.9342 60.1534 33.9342C63.5128 33.9342 66.794 35.0436 69.4737 37.0436L71.6339 36.2741C68.4425 33.4929 64.423 31.9733 60.1539 31.9733C50.482 31.9733 42.6229 39.8327 42.6229 49.5043C42.6229 59.1723 50.4823 67.0393 60.1429 67.0393L60.1413 67.0395ZM72.9693 64.0512L77.3677 68.4496L79.0865 66.7308L74.6959 62.3402C74.3678 62.7113 74.0475 63.0707 73.6842 63.4183C73.4498 63.641 73.2115 63.8403 72.9693 64.0512ZM90.1213 76.8992C90.1213 76.2078 89.8518 75.5476 89.3713 75.0711L81.8127 67.5125C81.7033 67.4031 81.5432 67.3328 81.383 67.3328C81.2229 67.3328 81.0744 67.3914 80.9533 67.5125L78.1447 70.3211C78.0354 70.4305 77.965 70.5907 77.965 70.7508C77.965 70.911 78.0236 71.0594 78.1447 71.1805L85.7033 78.7391C86.1916 79.2274 86.8439 79.4891 87.5314 79.4891C88.2307 79.4891 88.883 79.2196 89.3595 78.7391C89.8517 78.2508 90.1213 77.6023 90.1213 76.8992Z" fill="black"/>
</svg>
