<svg width="90" height="96" viewBox="0 0 90 96" fill="none" xmlns="http://www.w3.org/2000/svg">
<g filter="url(#filter0_d_626_26)">
<path d="M83.781 26.094L80.9372 23.2659C79.7927 22.1214 78.238 21.4768 76.6169 21.4768C74.9958 21.4768 73.4411 22.1213 72.2966 23.2659L63.5778 31.969V8.06299C63.5778 5.99269 62.7536 4.00439 61.2887 2.53959C59.8239 1.07479 57.8356 0.250488 55.7653 0.250488H12.1873C7.87092 0.250488 4.37482 3.74659 4.37482 8.06299V79.938C4.37482 82.0083 5.19904 83.9966 6.66392 85.4614C8.12872 86.9262 10.117 87.7505 12.1873 87.7505H55.7653C57.8356 87.7505 59.8239 86.9263 61.2887 85.4614C62.7535 83.9966 63.5778 82.0083 63.5778 79.938V54.938L83.7808 34.75C86.1519 32.3516 86.1521 28.4924 83.781 26.094ZM60.922 53.188L59.7501 54.3599C59.7111 53.0943 58.9064 51.9732 57.7189 51.5318L76.0309 33.2348L78.4528 35.6567L60.922 53.188ZM45.86 63.313L45.2038 61.7505L46.8913 56.9536C48.1218 57.8911 49.2233 58.9848 50.1725 60.2036L45.3444 61.8911L45.86 63.313ZM53.2506 59.0786C51.8053 57.0356 50.0123 55.2661 47.9537 53.8442C48.2467 52.6333 48.7779 51.4887 49.5162 50.4848L51.9381 50.141C52.3131 51.0317 52.7975 53.5629 53.5006 53.891C53.8912 54.266 56.0318 54.3129 56.5318 54.4223V57.4692C55.5592 58.227 54.442 58.7739 53.2506 59.0786ZM55.1256 49.7036C54.9147 48.4692 54.0162 47.4692 52.8131 47.1255L63.1411 36.7815L71.3911 28.5471L73.813 30.969L55.1256 49.7036ZM60.4537 79.9376C60.4537 82.5274 58.356 84.6251 55.7662 84.6251H12.1882C9.59842 84.6251 7.50072 82.5274 7.50072 79.9376V8.06259C7.50072 5.47279 9.59842 3.37509 12.1882 3.37509H55.7662C58.356 3.37509 60.4537 5.47279 60.4537 8.06259V35.0936L47.6097 47.9376C46.7035 48.8673 46.0042 49.9806 45.5628 51.2032L42.2659 60.5782C41.8714 61.7462 42.1722 63.0391 43.0433 63.9141C43.9143 64.7891 45.2035 65.0938 46.3753 64.7031L55.8441 61.4062C57.6722 60.6836 59.2855 59.5039 60.5316 57.9843L60.4537 79.9376ZM81.5627 32.5466L80.6721 33.4528L73.594 26.3747L74.5002 25.4685C75.676 24.3123 77.5588 24.3123 78.7346 25.4685L81.5627 28.3747C82.6955 29.5349 82.6955 31.3864 81.5627 32.5466Z" fill="black"/>
</g>
<defs>
<filter id="filter0_d_626_26" x="0.374817" y="0.250488" width="89.1844" height="95.5" filterUnits="userSpaceOnUse" color-interpolation-filters="sRGB">
<feFlood flood-opacity="0" result="BackgroundImageFix"/>
<feColorMatrix in="SourceAlpha" type="matrix" values="0 0 0 0 0 0 0 0 0 0 0 0 0 0 0 0 0 0 127 0" result="hardAlpha"/>
<feOffset dy="4"/>
<feGaussianBlur stdDeviation="2"/>
<feComposite in2="hardAlpha" operator="out"/>
<feColorMatrix type="matrix" values="0 0 0 0 0 0 0 0 0 0 0 0 0 0 0 0 0 0 0.25 0"/>
<feBlend mode="normal" in2="BackgroundImageFix" result="effect1_dropShadow_626_26"/>
<feBlend mode="normal" in="SourceGraphic" in2="effect1_dropShadow_626_26" result="shape"/>
</filter>
</defs>
</svg>
