<svg width="96" height="72" viewBox="0 0 96 72" fill="none" xmlns="http://www.w3.org/2000/svg">
<g filter="url(#filter0_d_626_17)">
<path d="M82.375 0.75H13.625C8.457 0.75 4.25 4.957 4.25 10.125V53.875C4.25 59.043 8.457 63.25 13.625 63.25H82.375C87.543 63.25 91.75 59.043 91.75 53.875V10.125C91.75 4.957 87.543 0.75 82.375 0.75ZM49.879 29.812C48.7735 30.644 47.2306 30.6401 46.1251 29.812L15.7111 7H80.2971L49.8831 29.812H49.879ZM34.317 28.769L10.505 52.581V10.905L34.317 28.769ZM39.3678 32.5581L42.3795 34.8159C44.0357 36.0581 46.0201 36.6792 48.0045 36.6792C49.9889 36.6792 51.9733 36.0581 53.6295 34.8159L56.6373 32.5581L81.0823 57.0031L14.9183 57.007L39.3678 32.5581ZM61.6878 28.769L85.4998 10.906V52.582L61.6878 28.769Z" fill="black"/>
</g>
<defs>
<filter id="filter0_d_626_17" x="0.25" y="0.75" width="95.5" height="70.5" filterUnits="userSpaceOnUse" color-interpolation-filters="sRGB">
<feFlood flood-opacity="0" result="BackgroundImageFix"/>
<feColorMatrix in="SourceAlpha" type="matrix" values="0 0 0 0 0 0 0 0 0 0 0 0 0 0 0 0 0 0 127 0" result="hardAlpha"/>
<feOffset dy="4"/>
<feGaussianBlur stdDeviation="2"/>
<feComposite in2="hardAlpha" operator="out"/>
<feColorMatrix type="matrix" values="0 0 0 0 0 0 0 0 0 0 0 0 0 0 0 0 0 0 0.25 0"/>
<feBlend mode="normal" in2="BackgroundImageFix" result="effect1_dropShadow_626_17"/>
<feBlend mode="normal" in="SourceGraphic" in2="effect1_dropShadow_626_17" result="shape"/>
</filter>
</defs>
</svg>
