<svg width="108" height="100" viewBox="0 0 108 100" fill="none" xmlns="http://www.w3.org/2000/svg">
<g filter="url(#filter0_d_626_30)">
<path d="M79.754 0.210938C79.0626 0.234375 78.4688 0.710938 78.2931 1.37894L74.7423 15.1059C74.5235 15.938 75.0235 16.7895 75.8595 17.0082C76.6954 17.2231 77.547 16.7231 77.7618 15.8871L81.3243 2.16414H81.3282C81.4298 1.7618 81.3712 1.33602 81.1563 0.976638C80.9454 0.621168 80.5977 0.363358 80.1954 0.261798C80.0509 0.222735 79.9024 0.20711 79.754 0.214923L79.754 0.210938ZM55.219 5.38284C54.1018 5.41409 52.9729 5.70706 51.9378 6.30472C49.43 7.75392 48.1722 10.5586 48.5394 13.2735L39.0706 26.3205C32.6644 35.1447 24.4726 42.5155 15.0316 47.9685L7.21519 52.4919C4.14879 54.2653 3.09019 58.2263 4.86359 61.2927L13.4339 76.1367C15.1917 79.1836 19.1136 80.2578 22.1722 78.5351L29.3636 91.0041L29.3558 91.0002C29.5628 91.3596 29.9027 91.6252 30.3089 91.7346C30.7112 91.844 31.1409 91.7854 31.5003 91.5744L38.3401 87.6174C38.9807 87.2542 39.2815 86.4885 39.0549 85.7854L34.5354 71.5944C42.7659 67.5319 51.6524 64.946 60.8084 63.985L76.8474 62.3131C79.0115 63.9811 82.0622 64.2819 84.5662 62.8366C87.8709 60.9264 89.0154 56.6725 87.1053 53.3639L61.4143 8.85187C60.1018 6.57847 57.6799 5.32434 55.219 5.38284ZM55.3127 8.48834C56.6604 8.44537 57.9689 9.14068 58.7072 10.4141L84.3982 54.9261C85.4685 56.7816 84.8631 59.0667 83.0115 60.137C81.156 61.2073 78.8709 60.5941 77.8006 58.7386L52.1016 14.2266C51.0313 12.3711 51.6446 10.0782 53.5 9.00784C54.0782 8.6719 54.6992 8.50393 55.3125 8.4844L55.3127 8.48834ZM101.438 13.8047C101.192 13.8165 100.953 13.8868 100.739 14.0079L88.5585 21.047C88.1991 21.2501 87.9374 21.5938 87.828 21.9923C87.7226 22.3907 87.7773 22.8204 87.9843 23.1798C88.1874 23.5391 88.5312 23.8009 88.9296 23.9102C89.3281 24.0157 89.7577 23.961 90.1171 23.754L102.297 16.7188V16.7227C102.656 16.5157 102.918 16.1719 103.028 15.7735C103.137 15.3711 103.078 14.9453 102.871 14.586C102.578 14.0743 102.024 13.7735 101.438 13.8047ZM49.9067 16.6836L74.5667 59.4066L60.4847 60.8793C51.5824 61.8129 42.9147 64.2113 34.8287 67.9731L22.6217 46.8251C29.9186 41.7001 36.3327 35.3951 41.5907 28.1531L49.9067 16.6836ZM88.7507 35.6216V35.6255C88.0593 35.6334 87.4538 36.0982 87.2663 36.7661C87.1531 37.1646 87.2038 37.5943 87.4109 37.9536C87.614 38.3169 87.9538 38.5826 88.3523 38.6919L102.016 42.4731C102.419 42.5864 102.848 42.5317 103.208 42.3286C103.571 42.1216 103.833 41.7817 103.942 41.3794C104.055 40.977 104.001 40.5513 103.798 40.188C103.591 39.8286 103.251 39.563 102.848 39.4536L89.1923 35.6802C89.0478 35.6411 88.9033 35.6216 88.7548 35.6216L88.7507 35.6216ZM20.0207 48.5746L32.0087 69.3516C30.8173 69.961 29.6415 70.6016 28.4775 71.2735L20.6689 75.7852C19.0634 76.711 17.0517 76.1798 16.1259 74.5743L7.56734 59.7263C6.64156 58.1208 7.17281 56.1091 8.77824 55.1833L16.5868 50.6755C17.7509 50.0037 18.8954 49.3044 20.0204 48.5778L20.0207 48.5746ZM31.7157 73.0476L35.6884 85.5396L31.2822 88.0787L24.8799 76.9657L30.0479 73.9852C30.5987 73.6649 31.1573 73.3563 31.7159 73.0517L31.7157 73.0476Z" fill="black"/>
</g>
<defs>
<filter id="filter0_d_626_30" x="0.00350952" y="0.210938" width="107.997" height="99.5776" filterUnits="userSpaceOnUse" color-interpolation-filters="sRGB">
<feFlood flood-opacity="0" result="BackgroundImageFix"/>
<feColorMatrix in="SourceAlpha" type="matrix" values="0 0 0 0 0 0 0 0 0 0 0 0 0 0 0 0 0 0 127 0" result="hardAlpha"/>
<feOffset dy="4"/>
<feGaussianBlur stdDeviation="2"/>
<feComposite in2="hardAlpha" operator="out"/>
<feColorMatrix type="matrix" values="0 0 0 0 0 0 0 0 0 0 0 0 0 0 0 0 0 0 0.25 0"/>
<feBlend mode="normal" in2="BackgroundImageFix" result="effect1_dropShadow_626_30"/>
<feBlend mode="normal" in="SourceGraphic" in2="effect1_dropShadow_626_30" result="shape"/>
</filter>
</defs>
</svg>
