<svg width="32" height="32" viewBox="0 0 32 32" fill="none" xmlns="http://www.w3.org/2000/svg">
<rect width="32" height="32" rx="16" fill="black"/>
<path d="M19.312 15.408C19.296 15.152 19.288 14.768 19.288 14.256V13.344C19.288 12.736 19.272 12.28 19.24 11.976C19.208 11.72 19.192 11.056 19.192 9.984C19.192 9.6 19.304 9.304 19.528 9.096C19.768 8.872 20.088 8.76 20.488 8.76C21 8.76 21.344 8.872 21.52 9.096C21.696 9.32 21.784 9.688 21.784 10.2V11.112L21.76 13.752C21.744 14.264 21.736 15.032 21.736 16.056L21.76 18.024C21.776 18.328 21.784 18.752 21.784 19.296C21.784 19.728 21.8 20.344 21.832 21.144C21.864 21.88 21.88 22.432 21.88 22.8C21.88 23.104 21.792 23.384 21.616 23.64C21.456 23.896 21.232 24.024 20.944 24.024C19.824 24.024 19.264 23.648 19.264 22.896C19.264 22.48 19.28 22.016 19.312 21.504C19.344 21.136 19.36 20.576 19.36 19.824C19.36 19.296 19.344 18.536 19.312 17.544C18.56 17.608 17.264 17.64 15.424 17.64C14.272 17.64 13.376 17.64 12.736 17.64C12.096 17.624 11.632 17.584 11.344 17.52L11.32 20.28C11.32 20.456 11.36 20.928 11.44 21.696C11.52 22.208 11.56 22.656 11.56 23.04C11.56 23.28 11.416 23.512 11.128 23.736C10.856 23.944 10.6 24.048 10.36 24.048C9.784 24.048 9.392 23.912 9.184 23.64C8.976 23.352 8.872 22.92 8.872 22.344L8.848 20.448C8.832 20.224 8.824 19.912 8.824 19.512C8.824 18.92 8.808 18.112 8.776 17.088C8.744 16.16 8.728 15.488 8.728 15.072C8.728 14.448 8.744 13.576 8.776 12.456C8.808 11.4 8.824 10.616 8.824 10.104C8.824 9.592 8.952 9.248 9.208 9.072C9.464 8.896 9.752 8.808 10.072 8.808C10.968 8.808 11.416 9.104 11.416 9.696C11.416 10.752 11.392 11.76 11.344 12.72C11.312 13.936 11.296 14.824 11.296 15.384C11.76 15.496 12.248 15.568 12.76 15.6C13.272 15.632 13.992 15.648 14.92 15.648C16.808 15.648 18.272 15.568 19.312 15.408Z" fill="white"/>
</svg>
